<svg xmlns="http://www.w3.org/2000/svg" xmlns:xlink="http://www.w3.org/1999/xlink" width="500" zoomAndPan="magnify" viewBox="0 0 375 374.999991" height="500" preserveAspectRatio="xMidYMid meet" version="1.0"><defs><g/><clipPath id="0cd50ac09b"><path d="M 25.632812 178 L 100 178 L 100 234 L 25.632812 234 Z M 25.632812 178 " clip-rule="nonzero"/></clipPath><clipPath id="622b4af8c9"><path d="M 293 167 L 349.632812 167 L 349.632812 221 L 293 221 Z M 293 167 " clip-rule="nonzero"/></clipPath><clipPath id="fad3cc6272"><path d="M 92 65.324219 L 277 65.324219 L 277 185 L 92 185 Z M 92 65.324219 " clip-rule="nonzero"/></clipPath><clipPath id="576f87cb87"><path d="M 67 231 L 304 231 L 304 309.824219 L 67 309.824219 Z M 67 231 " clip-rule="nonzero"/></clipPath><clipPath id="4a3cb89038"><path d="M 51 213 L 320 213 L 320 309.824219 L 51 309.824219 Z M 51 213 " clip-rule="nonzero"/></clipPath></defs><path fill="#ff2400" d="M 311.320312 180.792969 C 311.320312 182.664062 311.269531 184.53125 311.167969 186.402344 C 311.066406 188.269531 310.914062 190.132812 310.714844 191.996094 C 310.511719 193.855469 310.257812 195.710938 309.957031 197.5625 C 309.652344 199.414062 309.300781 201.253906 308.898438 203.089844 C 308.496094 204.925781 308.042969 206.75 307.542969 208.5625 C 307.042969 210.378906 306.492188 212.179688 305.890625 213.96875 C 305.292969 215.757812 304.644531 217.535156 303.953125 219.296875 C 303.257812 221.058594 302.515625 222.800781 301.722656 224.53125 C 300.933594 226.257812 300.097656 227.96875 299.21875 229.65625 C 298.335938 231.347656 297.40625 233.019531 296.433594 234.667969 C 295.460938 236.316406 294.445312 237.945312 293.386719 239.550781 C 292.324219 241.152344 291.222656 242.734375 290.074219 244.289062 C 288.929688 245.84375 287.742188 247.371094 286.511719 248.875 C 285.28125 250.378906 284.015625 251.851562 282.703125 253.296875 C 281.394531 254.742188 280.050781 256.160156 278.664062 257.542969 C 277.277344 258.929688 275.855469 260.285156 274.398438 261.609375 C 272.9375 262.929688 271.445312 264.21875 269.914062 265.476562 C 268.386719 266.730469 266.824219 267.953125 265.230469 269.140625 C 263.636719 270.324219 262.007812 271.476562 260.351562 272.589844 C 258.695312 273.703125 257.007812 274.78125 255.292969 275.820312 C 253.578125 276.859375 251.835938 277.859375 250.066406 278.820312 C 248.296875 279.785156 246.5 280.707031 244.683594 281.585938 C 242.863281 282.46875 241.019531 283.308594 239.15625 284.109375 C 237.289062 284.910156 235.402344 285.667969 233.496094 286.382812 C 231.59375 287.097656 229.667969 287.769531 227.726562 288.402344 C 225.78125 289.03125 223.824219 289.617188 221.851562 290.160156 C 219.875 290.703125 217.886719 291.203125 215.886719 291.65625 C 213.886719 292.113281 211.871094 292.519531 209.847656 292.886719 C 207.824219 293.25 205.792969 293.570312 203.753906 293.84375 C 201.710938 294.121094 199.664062 294.347656 197.609375 294.53125 C 195.558594 294.714844 193.5 294.851562 191.441406 294.945312 C 189.378906 295.035156 187.316406 295.082031 185.253906 295.082031 C 183.191406 295.082031 181.128906 295.035156 179.070312 294.945312 C 177.007812 294.851562 174.953125 294.714844 172.898438 294.53125 C 170.84375 294.347656 168.796875 294.121094 166.757812 293.84375 C 164.714844 293.570312 162.683594 293.25 160.660156 292.886719 C 158.636719 292.519531 156.625 292.113281 154.621094 291.65625 C 152.621094 291.203125 150.632812 290.703125 148.660156 290.160156 C 146.683594 289.617188 144.726562 289.03125 142.785156 288.402344 C 140.839844 287.769531 138.917969 287.097656 137.011719 286.382812 C 135.105469 285.667969 133.21875 284.910156 131.355469 284.109375 C 129.488281 283.308594 127.648438 282.46875 125.828125 281.585938 C 124.007812 280.707031 122.214844 279.785156 120.445312 278.820312 C 118.675781 277.859375 116.929688 276.859375 115.214844 275.820312 C 113.5 274.78125 111.8125 273.703125 110.15625 272.589844 C 108.5 271.476562 106.875 270.324219 105.277344 269.140625 C 103.683594 267.953125 102.121094 266.730469 100.59375 265.476562 C 99.066406 264.21875 97.570312 262.929688 96.113281 261.609375 C 94.652344 260.285156 93.230469 258.929688 91.847656 257.542969 C 90.460938 256.160156 89.113281 254.742188 87.804688 253.296875 C 86.496094 251.851562 85.226562 250.378906 83.996094 248.875 C 82.769531 247.371094 81.582031 245.84375 80.433594 244.289062 C 79.289062 242.734375 78.183594 241.152344 77.125 239.550781 C 76.0625 237.945312 75.046875 236.316406 74.074219 234.667969 C 73.101562 233.019531 72.175781 231.347656 71.292969 229.65625 C 70.410156 227.96875 69.574219 226.257812 68.785156 224.53125 C 67.996094 222.800781 67.253906 221.058594 66.558594 219.296875 C 65.863281 217.535156 65.214844 215.757812 64.617188 213.96875 C 64.019531 212.179688 63.46875 210.378906 62.964844 208.5625 C 62.464844 206.75 62.011719 204.925781 61.609375 203.089844 C 61.207031 201.253906 60.855469 199.414062 60.554688 197.5625 C 60.25 195.710938 59.996094 193.855469 59.796875 191.996094 C 59.59375 190.132812 59.441406 188.269531 59.339844 186.402344 C 59.238281 184.53125 59.1875 182.664062 59.1875 180.792969 C 59.1875 178.921875 59.238281 177.054688 59.339844 175.183594 C 59.441406 173.316406 59.59375 171.453125 59.796875 169.589844 C 59.996094 167.730469 60.25 165.875 60.554688 164.023438 C 60.855469 162.171875 61.207031 160.332031 61.609375 158.496094 C 62.011719 156.660156 62.464844 154.835938 62.964844 153.023438 C 63.46875 151.207031 64.019531 149.40625 64.617188 147.617188 C 65.214844 145.828125 65.863281 144.050781 66.558594 142.289062 C 67.253906 140.527344 67.996094 138.785156 68.785156 137.054688 C 69.574219 135.328125 70.410156 133.617188 71.292969 131.929688 C 72.175781 130.238281 73.101562 128.566406 74.074219 126.917969 C 75.046875 125.265625 76.0625 123.640625 77.125 122.035156 C 78.183594 120.433594 79.289062 118.851562 80.433594 117.296875 C 81.582031 115.742188 82.769531 114.214844 83.996094 112.710938 C 85.226562 111.207031 86.496094 109.734375 87.804688 108.289062 C 89.113281 106.84375 90.460938 105.425781 91.847656 104.039062 C 93.230469 102.65625 94.652344 101.300781 96.113281 99.976562 C 97.570312 98.65625 99.066406 97.367188 100.59375 96.109375 C 102.121094 94.855469 103.683594 93.632812 105.277344 92.445312 C 106.875 91.257812 108.5 90.109375 110.15625 88.996094 C 111.8125 87.878906 113.5 86.804688 115.214844 85.765625 C 116.929688 84.726562 118.675781 83.726562 120.445312 82.761719 C 122.214844 81.800781 124.007812 80.878906 125.828125 80 C 127.648438 79.117188 129.488281 78.277344 131.355469 77.476562 C 133.21875 76.675781 135.105469 75.917969 137.011719 75.203125 C 138.917969 74.488281 140.839844 73.8125 142.785156 73.183594 C 144.726562 72.554688 146.683594 71.96875 148.660156 71.425781 C 150.632812 70.882812 152.621094 70.382812 154.621094 69.929688 C 156.625 69.472656 158.636719 69.0625 160.660156 68.699219 C 162.683594 68.335938 164.714844 68.015625 166.757812 67.742188 C 168.796875 67.464844 170.84375 67.238281 172.898438 67.054688 C 174.953125 66.871094 177.007812 66.734375 179.070312 66.640625 C 181.128906 66.550781 183.191406 66.503906 185.253906 66.503906 C 187.316406 66.503906 189.378906 66.550781 191.441406 66.640625 C 193.5 66.734375 195.558594 66.871094 197.609375 67.054688 C 199.664062 67.238281 201.710938 67.464844 203.753906 67.742188 C 205.792969 68.015625 207.824219 68.335938 209.847656 68.699219 C 211.871094 69.0625 213.882812 69.472656 215.886719 69.929688 C 217.886719 70.382812 219.875 70.882812 221.851562 71.425781 C 223.824219 71.96875 225.78125 72.554688 227.726562 73.183594 C 229.667969 73.8125 231.59375 74.488281 233.496094 75.203125 C 235.402344 75.917969 237.289062 76.675781 239.15625 77.476562 C 241.019531 78.277344 242.863281 79.117188 244.683594 80 C 246.5 80.878906 248.296875 81.800781 250.066406 82.761719 C 251.835938 83.726562 253.578125 84.726562 255.292969 85.765625 C 257.007812 86.804688 258.695312 87.878906 260.351562 88.996094 C 262.007812 90.109375 263.636719 91.257812 265.230469 92.445312 C 266.824219 93.632812 268.386719 94.855469 269.914062 96.109375 C 271.445312 97.367188 272.9375 98.65625 274.398438 99.976562 C 275.855469 101.300781 277.277344 102.65625 278.664062 104.039062 C 280.050781 105.425781 281.394531 106.84375 282.703125 108.289062 C 284.015625 109.734375 285.28125 111.207031 286.511719 112.710938 C 287.742188 114.214844 288.929688 115.742188 290.074219 117.296875 C 291.222656 118.851562 292.324219 120.433594 293.386719 122.035156 C 294.445312 123.640625 295.460938 125.265625 296.433594 126.917969 C 297.40625 128.566406 298.335938 130.238281 299.21875 131.929688 C 300.097656 133.617188 300.933594 135.328125 301.722656 137.054688 C 302.515625 138.785156 303.257812 140.527344 303.953125 142.289062 C 304.644531 144.050781 305.292969 145.828125 305.890625 147.617188 C 306.492188 149.40625 307.042969 151.207031 307.542969 153.023438 C 308.042969 154.835938 308.496094 156.660156 308.898438 158.496094 C 309.300781 160.332031 309.652344 162.171875 309.957031 164.023438 C 310.257812 165.875 310.511719 167.730469 310.714844 169.589844 C 310.914062 171.453125 311.066406 173.316406 311.167969 175.183594 C 311.269531 177.054688 311.320312 178.921875 311.320312 180.792969 Z M 311.320312 180.792969 " fill-opacity="1" fill-rule="nonzero"/><path fill="#040051" d="M 131.785156 192.136719 C 133.246094 191.382812 134.136719 190.679688 134.675781 189.84375 C 135.21875 189.003906 135.40625 188.03125 135.21875 187.113281 C 134.972656 186.058594 134.273438 185.167969 133.109375 184.4375 L 132.894531 184.304688 L 131.976562 183.980469 C 124.464844 181.253906 101.878906 173.066406 89.933594 156.589844 C 90.097656 155.859375 90.3125 155.132812 90.503906 154.429688 C 90.960938 152.726562 91.421875 151.105469 91.503906 149.621094 C 91.664062 146.703125 90.339844 145.246094 89.207031 144.542969 L 89.125 144.488281 L 66.863281 131.792969 C 65.726562 131.117188 64.320312 131.089844 63.160156 131.710938 C 62.296875 132.144531 61.621094 132.898438 61.214844 133.792969 C 60.457031 135.492188 60.945312 137.355469 62.375 138.4375 L 74.75 148.109375 C 73.292969 147.1875 71.292969 145.972656 68.859375 144.460938 C 65.671875 142.488281 62.402344 140.4375 60.566406 139.328125 C 59.40625 138.597656 57.972656 138.519531 56.730469 139.195312 C 55.40625 139.867188 54.488281 141.246094 54.378906 142.707031 C 54.269531 144.027344 54.8125 145.246094 55.867188 146.054688 L 67.96875 155.507812 C 66.402344 154.535156 64.242188 153.1875 61.59375 151.566406 C 58.703125 149.78125 55.8125 147.972656 54.136719 146.917969 C 52.972656 146.164062 51.570312 146.109375 50.355469 146.730469 C 50.164062 146.839844 49.976562 146.945312 49.785156 147.082031 C 48.8125 147.8125 48.21875 148.972656 48.191406 150.160156 C 48.164062 151.296875 48.652344 152.375 49.542969 153.132812 L 69.375 170.527344 C 70.832031 171.824219 72.996094 172.09375 74.75 171.175781 L 74.832031 171.121094 L 81.882812 167.257812 C 82.125 167.476562 82.425781 167.71875 82.773438 168.015625 C 88.152344 172.636719 104.472656 186.679688 124.949219 194.40625 L 125.976562 194.785156 L 126.976562 194.300781 C 127.464844 194.054688 128.113281 193.785156 128.8125 193.488281 C 129.109375 193.351562 129.433594 193.246094 129.734375 193.109375 L 129.757812 193.109375 L 130.707031 192.679688 C 131.054688 192.488281 131.433594 192.328125 131.785156 192.136719 Z M 131.785156 192.136719 " fill-opacity="1" fill-rule="nonzero"/><path fill="#ffffff" d="M 132.542969 188.4375 C 132.082031 189.113281 130.921875 189.761719 129.597656 190.382812 C 129.328125 190.488281 129.085938 190.625 128.8125 190.734375 C 127.707031 191.21875 126.597656 191.652344 125.816406 192.03125 C 117.140625 188.761719 109.226562 184.332031 102.605469 179.980469 C 92.070312 173.066406 84.800781 166.339844 82.9375 164.828125 C 82.503906 164.421875 81.882812 164.371094 81.371094 164.640625 L 80.9375 164.882812 L 73.617188 168.878906 C 73.507812 168.933594 73.371094 169.015625 73.238281 169.042969 C 72.480469 169.285156 71.644531 169.125 71.050781 168.582031 L 51.191406 151.1875 C 50.679688 150.753906 50.625 150.160156 50.839844 149.675781 C 50.949219 149.429688 51.109375 149.214844 51.328125 149.082031 C 51.730469 148.78125 52.273438 148.675781 52.785156 149.027344 C 57.054688 151.671875 68.96875 159.046875 69.507812 159.398438 C 72.101562 160.882812 74.480469 157.453125 72.210938 155.535156 L 57.433594 143.976562 C 56.027344 142.921875 57.8125 140.515625 59.242188 141.4375 C 63.484375 144.082031 75.722656 151.644531 76.265625 151.996094 C 78.859375 153.484375 81.234375 150.050781 78.964844 148.136719 L 63.917969 136.355469 C 63.347656 135.925781 63.296875 135.304688 63.539062 134.738281 C 63.699219 134.386719 63.972656 134.0625 64.320312 133.898438 C 64.699219 133.710938 65.160156 133.65625 65.59375 133.925781 L 87.882812 146.648438 C 90.3125 148.136719 88.070312 152.699219 87.234375 157.074219 C 92.394531 164.613281 99.714844 170.5 106.984375 175.011719 C 117.414062 181.496094 127.789062 185.085938 131.785156 186.546875 C 132.8125 187.25 132.949219 187.84375 132.542969 188.4375 Z M 132.542969 188.4375 " fill-opacity="1" fill-rule="nonzero"/><path fill="#040051" d="M 132.542969 188.4375 C 132.082031 189.113281 130.921875 189.761719 129.597656 190.382812 C 129.328125 190.488281 129.085938 190.625 128.8125 190.734375 C 127.707031 191.21875 126.597656 191.652344 125.816406 192.03125 C 117.140625 188.761719 109.226562 184.332031 102.605469 179.980469 C 92.070312 173.066406 84.800781 166.339844 82.9375 164.828125 C 82.503906 164.421875 81.882812 164.371094 81.371094 164.640625 L 80.9375 164.882812 L 73.617188 168.878906 C 73.507812 168.933594 73.371094 169.015625 73.238281 169.042969 C 72.480469 169.285156 71.644531 169.125 71.050781 168.582031 L 51.191406 151.1875 C 50.679688 150.753906 50.625 150.160156 50.839844 149.675781 C 50.949219 149.429688 51.109375 149.214844 51.328125 149.082031 C 51.730469 148.78125 52.273438 148.675781 52.785156 149.027344 C 57.054688 151.671875 68.96875 159.046875 69.507812 159.398438 C 72.101562 160.882812 74.480469 157.453125 72.210938 155.535156 L 57.433594 143.976562 C 56.027344 142.921875 57.8125 140.515625 59.242188 141.4375 C 63.484375 144.082031 75.722656 151.644531 76.265625 151.996094 C 78.859375 153.484375 81.234375 150.050781 78.964844 148.136719 L 63.917969 136.355469 C 63.347656 135.925781 63.296875 135.304688 63.539062 134.738281 C 63.699219 134.386719 63.972656 134.0625 64.320312 133.898438 C 64.699219 133.710938 65.160156 133.65625 65.59375 133.925781 L 87.882812 146.648438 C 90.3125 148.136719 88.070312 152.699219 87.234375 157.074219 C 92.394531 164.613281 99.714844 170.5 106.984375 175.011719 C 117.414062 181.496094 127.789062 185.085938 131.785156 186.546875 C 132.8125 187.25 132.949219 187.84375 132.542969 188.4375 Z M 132.542969 188.4375 " fill-opacity="0.19" fill-rule="nonzero"/><path fill="#ffffff" d="M 80.640625 165.015625 L 73.347656 168.988281 C 73.425781 168.960938 73.507812 168.90625 73.589844 168.878906 L 80.828125 164.9375 C 80.75 164.9375 80.695312 164.964844 80.640625 165.015625 Z M 80.640625 165.015625 " fill-opacity="1" fill-rule="nonzero"/><path fill="#ffffff" d="M 57.539062 141.652344 C 57.863281 141.597656 58.1875 141.625 58.484375 141.839844 C 62.726562 144.488281 74.96875 152.050781 75.535156 152.402344 C 76.535156 152.96875 77.507812 152.808594 78.183594 152.292969 C 77.613281 152.457031 76.9375 152.429688 76.265625 152.023438 C 75.695312 151.671875 63.457031 144.082031 59.214844 141.460938 C 58.648438 141.113281 58 141.273438 57.539062 141.652344 Z M 57.539062 141.652344 " fill-opacity="1" fill-rule="nonzero"/><path fill="#ffffff" d="M 51.136719 149.1875 C 51.40625 149.132812 51.730469 149.1875 52 149.40625 C 56.269531 152.050781 68.183594 159.425781 68.726562 159.804688 C 69.726562 160.371094 70.699219 160.210938 71.375 159.695312 C 70.804688 159.859375 70.128906 159.832031 69.457031 159.425781 C 68.914062 159.074219 57 151.699219 52.730469 149.027344 C 52.21875 148.675781 51.675781 148.78125 51.273438 149.082031 C 51.246094 149.105469 51.191406 149.160156 51.136719 149.1875 Z M 51.136719 149.1875 " fill-opacity="1" fill-rule="nonzero"/><path fill="#ffffff" d="M 81.371094 164.640625 L 80.828125 164.9375 C 81.289062 164.773438 81.828125 164.882812 82.207031 165.207031 C 85.261719 167.691406 102.605469 183.925781 125.085938 192.40625 C 126.085938 191.921875 127.542969 191.355469 128.867188 190.761719 C 129.355469 190.542969 129.8125 190.328125 130.21875 190.085938 C 130.003906 190.191406 129.8125 190.300781 129.570312 190.382812 C 128.246094 190.976562 126.761719 191.542969 125.789062 192.03125 C 103.308594 183.546875 85.964844 167.3125 82.910156 164.828125 C 82.503906 164.421875 81.855469 164.371094 81.371094 164.640625 Z M 81.371094 164.640625 " fill-opacity="1" fill-rule="nonzero"/><path fill="#ffffff" d="M 78.210938 148.539062 C 79.613281 149.730469 79.234375 151.457031 78.15625 152.292969 C 79.75 151.808594 80.613281 149.566406 78.9375 148.160156 L 63.890625 136.382812 C 63.324219 135.953125 63.269531 135.304688 63.511719 134.765625 C 63.621094 134.519531 63.753906 134.332031 63.945312 134.140625 C 63.808594 134.167969 63.671875 134.222656 63.566406 134.277344 C 63.214844 134.464844 62.945312 134.765625 62.78125 135.113281 C 62.539062 135.65625 62.59375 136.304688 63.160156 136.734375 Z M 78.210938 148.539062 " fill-opacity="1" fill-rule="nonzero"/><path fill="#040051" d="M 78.210938 148.539062 C 79.613281 149.730469 79.234375 151.457031 78.15625 152.292969 C 79.75 151.808594 80.613281 149.566406 78.9375 148.160156 L 63.890625 136.382812 C 63.324219 135.953125 63.269531 135.304688 63.511719 134.765625 C 63.621094 134.519531 63.753906 134.332031 63.945312 134.140625 C 63.808594 134.167969 63.671875 134.222656 63.566406 134.277344 C 63.214844 134.464844 62.945312 134.765625 62.78125 135.113281 C 62.539062 135.65625 62.59375 136.304688 63.160156 136.734375 Z M 78.210938 148.539062 " fill-opacity="0.33" fill-rule="nonzero"/><path fill="#ffffff" d="M 71.453125 155.914062 C 72.859375 157.101562 72.480469 158.832031 71.402344 159.667969 C 72.996094 159.183594 73.859375 156.941406 72.183594 155.535156 L 57.40625 143.976562 C 56.566406 143.355469 56.863281 142.246094 57.539062 141.652344 C 56.433594 141.894531 55.566406 143.542969 56.675781 144.351562 Z M 71.453125 155.914062 " fill-opacity="1" fill-rule="nonzero"/><path fill="#040051" d="M 71.453125 155.914062 C 72.859375 157.101562 72.480469 158.832031 71.402344 159.667969 C 72.996094 159.183594 73.859375 156.941406 72.183594 155.535156 L 57.40625 143.976562 C 56.566406 143.355469 56.863281 142.246094 57.539062 141.652344 C 56.433594 141.894531 55.566406 143.542969 56.675781 144.351562 Z M 71.453125 155.914062 " fill-opacity="0.33" fill-rule="nonzero"/><path fill="#040051" d="M 51.136719 151.1875 L 70.996094 168.582031 C 71.589844 169.125 72.425781 169.285156 73.183594 169.042969 L 80.613281 164.992188 C 80.722656 164.9375 80.804688 164.910156 80.910156 164.882812 C 81.34375 164.746094 81.828125 164.882812 82.179688 165.179688 C 85.234375 167.664062 102.578125 183.898438 125.058594 192.382812 C 126.058594 191.894531 127.515625 191.328125 128.839844 190.734375 C 128.8125 190.734375 128.8125 190.734375 128.785156 190.734375 C 113.332031 187.25 87.503906 167.3125 81.777344 162.777344 C 81.128906 162.261719 80.207031 162.234375 79.53125 162.722656 C 77.019531 164.53125 74.777344 166.070312 72.15625 165.71875 C 68.238281 164.449219 58.648438 156.777344 50.785156 149.703125 C 50.597656 150.160156 50.652344 150.753906 51.136719 151.1875 Z M 51.136719 151.1875 " fill-opacity="0.46" fill-rule="nonzero"/><path fill="#ffffff" d="M 85.125 157.75 C 84.9375 158.859375 85.261719 159.992188 86.042969 160.804688 C 90.582031 165.585938 110.765625 184.464844 132.542969 188.464844 C 132.921875 187.871094 132.785156 187.277344 131.757812 186.628906 C 124.976562 184.167969 99.796875 175.472656 87.207031 157.15625 C 88.070312 152.753906 90.3125 148.214844 87.855469 146.730469 L 65.566406 134.007812 C 65.132812 133.738281 64.671875 133.792969 64.296875 133.980469 L 84.53125 147.621094 C 85.882812 148.484375 86.640625 150.027344 86.449219 151.621094 C 86.234375 153.511719 85.449219 155.96875 85.125 157.75 Z M 85.125 157.75 " fill-opacity="1" fill-rule="nonzero"/><path fill="#040051" d="M 132.542969 188.4375 C 132.082031 189.113281 130.921875 189.761719 129.597656 190.382812 C 129.328125 190.488281 129.085938 190.625 128.8125 190.734375 C 127.707031 191.21875 126.597656 191.652344 125.816406 192.03125 C 117.140625 188.761719 109.007812 185.734375 102.390625 181.386719 C 103.902344 180.226562 105.6875 177.226562 106.984375 175.09375 C 117.414062 181.574219 127.789062 185.167969 131.785156 186.628906 C 132.785156 187.25 132.949219 187.84375 132.542969 188.4375 Z M 132.542969 188.4375 " fill-opacity="0.46" fill-rule="nonzero"/><path fill="#040051" d="M 128.597656 238.652344 C 128.191406 238.652344 127.8125 238.570312 127.464844 238.410156 L 127.464844 238.382812 C 127.003906 238.167969 125.542969 237.328125 120.058594 234.222656 C 115.792969 231.792969 110.253906 228.660156 105.199219 225.796875 C 98.175781 221.796875 92.097656 218.367188 91.691406 218.125 L 91.125 217.800781 L 95.5 208.804688 L 96.148438 209.019531 L 133.351562 225.957031 C 134.054688 226.28125 134.570312 226.875 134.867188 227.714844 C 135.460938 229.332031 135.164062 231.628906 134.109375 233.871094 C 132.785156 236.734375 130.542969 238.652344 128.597656 238.652344 Z M 128.597656 238.652344 " fill-opacity="1" fill-rule="nonzero"/><path fill="#ffffff" d="M 131.378906 232.574219 C 130.433594 234.574219 129.136719 235.464844 128.679688 235.574219 C 127.273438 234.789062 118.574219 229.847656 110.710938 225.390625 C 109.386719 224.632812 108.0625 223.878906 106.820312 223.175781 C 101.445312 220.121094 97.417969 217.828125 95.203125 216.585938 L 95.691406 215.558594 L 96.472656 213.964844 L 97.039062 212.828125 L 108.738281 218.152344 L 108.984375 218.257812 L 110.847656 219.125 L 132.027344 228.765625 C 132.191406 229.144531 132.300781 230.65625 131.378906 232.574219 Z M 131.378906 232.574219 " fill-opacity="1" fill-rule="nonzero"/><path fill="#040051" d="M 131.378906 232.574219 C 130.433594 234.574219 129.136719 235.464844 128.679688 235.574219 C 127.273438 234.789062 118.574219 229.847656 110.710938 225.390625 C 109.386719 224.632812 108.0625 223.878906 106.820312 223.175781 C 101.445312 220.121094 97.417969 217.828125 95.203125 216.585938 L 95.691406 215.558594 L 96.472656 213.964844 L 97.039062 212.828125 L 108.738281 218.152344 L 108.984375 218.257812 L 110.847656 219.125 L 132.027344 228.765625 C 132.191406 229.144531 132.300781 230.65625 131.378906 232.574219 Z M 131.378906 232.574219 " fill-opacity="0.19" fill-rule="nonzero"/><path fill="#ffffff" d="M 108.710938 218.125 L 96.445312 214.179688 L 96.417969 213.9375 L 96.988281 212.800781 L 108.683594 218.125 Z M 108.710938 218.125 " fill-opacity="1" fill-rule="nonzero"/><g clip-path="url(#0cd50ac09b)"><path fill="#040051" d="M 87.339844 233.0625 C 63.945312 225.121094 44.140625 215.558594 26.792969 203.859375 C 25.632812 203.078125 25.28125 201.539062 25.984375 200.324219 L 37.789062 180.253906 C 38.601562 178.902344 40.058594 178.066406 41.625 178.066406 C 42.382812 178.066406 43.167969 178.28125 43.84375 178.660156 L 99.039062 210.425781 L 87.9375 233.25 Z M 87.339844 233.0625 " fill-opacity="1" fill-rule="nonzero"/></g><path fill="#ffffff" d="M 95.148438 211.453125 L 94.582031 212.613281 L 88.015625 226.066406 L 86.367188 229.46875 C 75.292969 225.632812 64.863281 221.339844 55.269531 216.664062 C 45.839844 212.074219 36.953125 206.996094 28.820312 201.539062 L 29.710938 200.027344 L 38.980469 184.277344 L 40.410156 181.820312 C 40.761719 181.199219 41.574219 180.953125 42.222656 181.277344 C 42.25 181.277344 42.273438 181.304688 42.300781 181.332031 Z M 95.148438 211.453125 " fill-opacity="1" fill-rule="nonzero"/><path fill="#040051" d="M 95.148438 211.453125 L 94.582031 212.613281 L 88.015625 226.066406 L 86.367188 229.46875 C 75.292969 225.632812 64.863281 221.339844 55.269531 216.664062 C 45.839844 212.074219 36.953125 206.996094 28.820312 201.539062 L 29.710938 200.027344 L 38.980469 184.277344 L 40.410156 181.820312 C 40.761719 181.199219 41.574219 180.953125 42.222656 181.277344 C 42.25 181.277344 42.273438 181.304688 42.300781 181.332031 Z M 95.148438 211.453125 " fill-opacity="0.19" fill-rule="nonzero"/><path fill="#ffffff" d="M 42.441406 184.570312 C 42.699219 184.578125 42.945312 184.632812 43.179688 184.742188 C 43.414062 184.847656 43.617188 184.996094 43.796875 185.183594 C 43.972656 185.371094 44.105469 185.585938 44.195312 185.828125 C 44.285156 186.070312 44.328125 186.320312 44.320312 186.578125 C 44.308594 186.835938 44.253906 187.082031 44.144531 187.316406 C 44.039062 187.550781 43.890625 187.757812 43.703125 187.933594 C 43.515625 188.109375 43.300781 188.242188 43.058594 188.332031 C 42.816406 188.421875 42.566406 188.464844 42.308594 188.457031 C 42.050781 188.449219 41.804688 188.390625 41.570312 188.28125 C 41.335938 188.175781 41.128906 188.027344 40.953125 187.839844 C 40.777344 187.652344 40.644531 187.4375 40.554688 187.195312 C 40.464844 186.953125 40.421875 186.707031 40.429688 186.449219 C 40.4375 186.191406 40.496094 185.945312 40.601562 185.707031 C 40.710938 185.472656 40.859375 185.269531 41.046875 185.09375 C 41.234375 184.914062 41.449219 184.78125 41.691406 184.691406 C 41.933594 184.601562 42.183594 184.558594 42.441406 184.570312 Z M 42.441406 184.570312 " fill-opacity="1" fill-rule="nonzero"/><path fill="#040051" d="M 42.675781 183.796875 C 42.933594 183.804688 43.179688 183.863281 43.414062 183.96875 C 43.648438 184.078125 43.855469 184.222656 44.03125 184.414062 C 44.207031 184.601562 44.339844 184.816406 44.429688 185.058594 C 44.523438 185.296875 44.5625 185.546875 44.554688 185.804688 C 44.546875 186.0625 44.488281 186.308594 44.382812 186.542969 C 44.273438 186.78125 44.128906 186.984375 43.9375 187.160156 C 43.75 187.335938 43.535156 187.472656 43.292969 187.5625 C 43.054688 187.652344 42.804688 187.695312 42.546875 187.683594 C 42.289062 187.675781 42.042969 187.617188 41.804688 187.511719 C 41.570312 187.40625 41.367188 187.257812 41.191406 187.070312 C 41.011719 186.882812 40.878906 186.667969 40.789062 186.425781 C 40.699219 186.183594 40.65625 185.933594 40.667969 185.675781 C 40.675781 185.417969 40.730469 185.171875 40.839844 184.9375 C 40.945312 184.703125 41.09375 184.496094 41.28125 184.320312 C 41.46875 184.144531 41.683594 184.011719 41.925781 183.921875 C 42.167969 183.828125 42.417969 183.789062 42.675781 183.796875 Z M 42.675781 183.796875 " fill-opacity="1" fill-rule="nonzero"/><path fill="#040051" d="M 88.015625 226.066406 L 86.367188 229.46875 C 75.292969 225.632812 64.863281 221.339844 55.269531 216.664062 C 45.839844 212.074219 36.953125 206.996094 28.820312 201.539062 L 29.710938 200.027344 C 29.738281 200.027344 66.265625 223.527344 88.015625 226.066406 Z M 88.015625 226.066406 " fill-opacity="0.38" fill-rule="nonzero"/><path fill="#ffffff" d="M 95.148438 211.453125 L 94.582031 212.613281 L 94.367188 212.777344 L 43.195312 183.167969 C 42.167969 182.574219 40.898438 182.683594 40.003906 183.441406 L 39.007812 184.277344 L 40.4375 181.820312 C 40.789062 181.199219 41.601562 180.953125 42.25 181.277344 C 42.273438 181.277344 42.300781 181.304688 42.328125 181.332031 Z M 95.148438 211.453125 " fill-opacity="1" fill-rule="nonzero"/><path fill="#040051" d="M 111.253906 220.339844 L 110.65625 225.390625 C 109.332031 224.632812 108.011719 223.878906 106.765625 223.175781 C 101.390625 220.121094 97.363281 217.828125 95.148438 216.585938 L 95.636719 215.558594 C 97.09375 216.367188 108.683594 222.851562 108.738281 222.796875 C 108.792969 222.742188 109.710938 219.71875 108.929688 218.230469 C 108.875 218.125 108.820312 218.015625 108.738281 217.933594 C 109.820312 217.878906 110.441406 218.476562 110.792969 219.070312 C 111.171875 219.691406 111.253906 220.339844 111.253906 220.339844 Z M 111.253906 220.339844 " fill-opacity="0.38" fill-rule="nonzero"/><path fill="#040051" d="M 278.949219 207.472656 L 301.566406 195.746094 L 308.90625 209.894531 L 286.289062 221.621094 Z M 278.949219 207.472656 " fill-opacity="1" fill-rule="nonzero"/><g clip-path="url(#622b4af8c9)"><path fill="#040051" d="M 294.867188 195.488281 C 292.433594 190.8125 294.273438 185.035156 298.945312 182.601562 L 325.234375 168.960938 C 329.910156 166.53125 335.691406 168.367188 338.121094 173.039062 L 348.523438 193.082031 C 350.957031 197.757812 349.117188 203.5625 344.445312 205.96875 L 318.15625 219.609375 C 313.480469 222.039062 307.699219 220.203125 305.269531 215.503906 Z M 294.867188 195.488281 " fill-opacity="1" fill-rule="nonzero"/></g><path fill="#ffffff" d="M 344.554688 195.164062 L 334.152344 175.121094 C 332.882812 172.660156 329.828125 171.691406 327.34375 172.960938 L 301.054688 186.601562 C 298.566406 187.898438 297.621094 190.921875 298.890625 193.40625 L 309.292969 213.449219 C 310.589844 215.9375 313.617188 216.910156 316.101562 215.613281 L 342.390625 201.96875 C 344.878906 200.699219 345.824219 197.648438 344.554688 195.164062 Z M 305.027344 193.542969 C 304.324219 193.894531 303.484375 193.625 303.132812 192.949219 C 302.78125 192.273438 303.054688 191.410156 303.730469 191.058594 L 329.449219 177.742188 C 330.152344 177.390625 330.988281 177.660156 331.339844 178.335938 C 331.691406 179.035156 331.421875 179.875 330.746094 180.226562 Z M 308.023438 199.324219 C 307.320312 199.675781 306.484375 199.402344 306.132812 198.730469 C 305.78125 198.054688 306.050781 197.1875 306.726562 196.839844 L 332.449219 183.519531 C 333.152344 183.167969 333.988281 183.441406 334.339844 184.117188 C 334.691406 184.789062 334.421875 185.65625 333.746094 186.007812 Z M 310.996094 205.078125 C 310.292969 205.429688 309.457031 205.15625 309.105469 204.484375 C 308.753906 203.808594 309.023438 202.941406 309.699219 202.589844 L 335.421875 189.273438 C 336.125 188.921875 336.960938 189.195312 337.3125 189.867188 C 337.664062 190.570312 337.394531 191.410156 336.71875 191.761719 Z M 313.996094 210.859375 C 313.292969 211.207031 312.457031 210.9375 312.105469 210.261719 C 311.753906 209.589844 312.023438 208.722656 312.699219 208.371094 L 338.417969 195.054688 C 339.121094 194.703125 339.960938 194.972656 340.3125 195.648438 C 340.664062 196.324219 340.390625 197.1875 339.714844 197.539062 Z M 313.996094 210.859375 " fill-opacity="1" fill-rule="nonzero"/><path fill="#040051" d="M 344.554688 195.164062 L 334.152344 175.121094 C 332.882812 172.660156 329.828125 171.691406 327.34375 172.960938 L 301.054688 186.601562 C 298.566406 187.898438 297.621094 190.921875 298.890625 193.40625 L 309.292969 213.449219 C 310.589844 215.9375 313.617188 216.910156 316.101562 215.613281 L 342.390625 201.96875 C 344.878906 200.699219 345.824219 197.648438 344.554688 195.164062 Z M 305.027344 193.542969 C 304.324219 193.894531 303.484375 193.625 303.132812 192.949219 C 302.78125 192.273438 303.054688 191.410156 303.730469 191.058594 L 329.449219 177.742188 C 330.152344 177.390625 330.988281 177.660156 331.339844 178.335938 C 331.691406 179.035156 331.421875 179.875 330.746094 180.226562 Z M 308.023438 199.324219 C 307.320312 199.675781 306.484375 199.402344 306.132812 198.730469 C 305.78125 198.054688 306.050781 197.1875 306.726562 196.839844 L 332.449219 183.519531 C 333.152344 183.167969 333.988281 183.441406 334.339844 184.117188 C 334.691406 184.789062 334.421875 185.65625 333.746094 186.007812 Z M 310.996094 205.078125 C 310.292969 205.429688 309.457031 205.15625 309.105469 204.484375 C 308.753906 203.808594 309.023438 202.941406 309.699219 202.589844 L 335.421875 189.273438 C 336.125 188.921875 336.960938 189.195312 337.3125 189.867188 C 337.664062 190.570312 337.394531 191.410156 336.71875 191.761719 Z M 313.996094 210.859375 C 313.292969 211.207031 312.457031 210.9375 312.105469 210.261719 C 311.753906 209.589844 312.023438 208.722656 312.699219 208.371094 L 338.417969 195.054688 C 339.121094 194.703125 339.960938 194.972656 340.3125 195.648438 C 340.664062 196.324219 340.390625 197.1875 339.714844 197.539062 Z M 313.996094 210.859375 " fill-opacity="0.19" fill-rule="nonzero"/><path fill="#040051" d="M 344.554688 195.164062 L 344.335938 194.730469 C 345.175781 197.109375 344.039062 199.863281 341.769531 201.050781 L 315.480469 214.691406 C 313.402344 215.773438 310.886719 215.261719 309.402344 213.558594 C 310.726562 215.9375 313.699219 216.855469 316.128906 215.613281 L 342.417969 201.96875 C 344.878906 200.699219 345.824219 197.648438 344.554688 195.164062 Z M 344.554688 195.164062 " fill-opacity="0.72" fill-rule="nonzero"/><path fill="#040051" d="M 340.09375 195.324219 C 339.664062 194.867188 338.988281 194.730469 338.417969 195.027344 L 312.699219 208.34375 C 312.105469 208.667969 311.808594 209.34375 311.996094 209.964844 C 311.914062 209.886719 311.835938 209.777344 311.78125 209.640625 C 311.429688 208.941406 311.699219 208.101562 312.375 207.75 L 338.09375 194.433594 C 338.796875 194.082031 339.636719 194.351562 340.015625 195.027344 C 340.039062 195.136719 340.09375 195.21875 340.09375 195.324219 Z M 340.09375 195.324219 " fill-opacity="0.43" fill-rule="nonzero"/><path fill="#040051" d="M 337.097656 189.542969 C 336.664062 189.085938 335.988281 188.949219 335.421875 189.246094 L 309.699219 202.566406 C 309.105469 202.863281 308.808594 203.5625 308.996094 204.183594 C 308.917969 204.105469 308.835938 203.996094 308.78125 203.859375 C 308.429688 203.160156 308.699219 202.320312 309.375 201.96875 L 335.097656 188.625 C 335.800781 188.273438 336.636719 188.546875 336.988281 189.21875 C 337.042969 189.355469 337.097656 189.464844 337.097656 189.542969 Z M 337.097656 189.542969 " fill-opacity="0.43" fill-rule="nonzero"/><path fill="#040051" d="M 334.125 183.792969 C 333.691406 183.332031 333.015625 183.195312 332.449219 183.492188 L 306.726562 196.8125 C 306.132812 197.109375 305.835938 197.808594 306 198.433594 C 305.917969 198.351562 305.835938 198.242188 305.78125 198.132812 C 305.429688 197.433594 305.699219 196.59375 306.375 196.242188 L 332.097656 182.925781 C 332.800781 182.574219 333.636719 182.84375 333.988281 183.519531 C 334.042969 183.574219 334.097656 183.683594 334.125 183.792969 Z M 334.125 183.792969 " fill-opacity="0.43" fill-rule="nonzero"/><path fill="#040051" d="M 331.125 177.984375 C 330.691406 177.523438 330.015625 177.390625 329.449219 177.6875 L 303.730469 191.003906 C 303.132812 191.300781 302.835938 192.003906 303.027344 192.625 C 302.945312 192.542969 302.863281 192.433594 302.808594 192.328125 C 302.457031 191.625 302.730469 190.789062 303.40625 190.4375 L 329.125 177.117188 C 329.828125 176.769531 330.664062 177.039062 331.042969 177.714844 C 331.042969 177.792969 331.097656 177.902344 331.125 177.984375 Z M 331.125 177.984375 " fill-opacity="0.43" fill-rule="nonzero"/><path fill="#ffffff" d="M 285.039062 209.371094 L 299.621094 201.808594 L 302.808594 207.949219 L 288.226562 215.511719 Z M 285.039062 209.371094 " fill-opacity="1" fill-rule="nonzero"/><path fill="#040051" d="M 285.070312 209.394531 L 299.675781 201.820312 L 302.859375 207.960938 L 288.253906 215.535156 Z M 285.070312 209.394531 " fill-opacity="0.19" fill-rule="nonzero"/><path fill="#ffffff" d="M 285.976562 210.234375 L 288.625 215.339844 L 288.21875 215.53125 L 285.058594 209.398438 L 299.648438 201.835938 L 300.1875 202.863281 Z M 285.976562 210.234375 " fill-opacity="1" fill-rule="nonzero"/><path fill="#040051" d="M 302.835938 207.96875 L 288.21875 215.53125 L 285.058594 209.398438 L 285.273438 209.289062 L 287.84375 214.261719 L 302.214844 206.804688 Z M 302.835938 207.96875 " fill-opacity="0.41" fill-rule="nonzero"/><path fill="#040051" d="M 290.410156 220.417969 L 248.316406 242.246094 C 247.53125 242.652344 246.558594 242.355469 246.152344 241.570312 L 239.5625 228.847656 C 239.15625 228.0625 239.453125 227.09375 240.234375 226.6875 L 282.332031 204.859375 C 283.113281 204.457031 284.085938 204.753906 284.492188 205.535156 L 291.085938 218.257812 C 291.515625 219.042969 291.21875 220.015625 290.410156 220.417969 Z M 290.410156 220.417969 " fill-opacity="1" fill-rule="nonzero"/><path fill="#ffffff" d="M 285.761719 217.71875 L 264.957031 228.496094 L 258.742188 231.738281 L 248.828125 236.871094 L 244.910156 229.308594 L 257.742188 222.660156 L 263.742188 219.527344 L 281.84375 210.15625 Z M 285.761719 217.71875 " fill-opacity="1" fill-rule="nonzero"/><path fill="#040051" d="M 285.761719 217.71875 L 264.957031 228.496094 L 258.742188 231.738281 L 248.828125 236.871094 L 244.910156 229.308594 L 257.742188 222.660156 L 263.742188 219.527344 L 281.84375 210.15625 Z M 285.761719 217.71875 " fill-opacity="0.19" fill-rule="nonzero"/><path fill="#ffffff" d="M 327.34375 172.960938 L 301.054688 186.601562 C 298.648438 187.84375 297.675781 190.734375 298.785156 193.164062 C 298.488281 190.949219 299.945312 188.492188 301.972656 187.410156 L 328.261719 173.769531 C 329.964844 172.878906 331.960938 173.066406 333.449219 174.09375 C 331.960938 172.417969 329.449219 171.878906 327.34375 172.960938 Z M 327.34375 172.960938 " fill-opacity="1" fill-rule="nonzero"/><path fill="#ffffff" d="M 245.828125 230.117188 L 249.234375 236.65625 L 248.828125 236.871094 L 244.910156 229.308594 L 281.84375 210.15625 L 282.355469 211.183594 Z M 245.828125 230.117188 " fill-opacity="1" fill-rule="nonzero"/><path fill="#040051" d="M 286.222656 217.933594 L 249.3125 237.058594 L 245.398438 229.496094 L 245.667969 229.359375 L 248.613281 235.007812 L 285.222656 216.015625 Z M 286.222656 217.933594 " fill-opacity="0.41" fill-rule="nonzero"/><path fill="#040051" d="M 264.957031 228.496094 L 258.714844 231.738281 L 257.71875 222.660156 L 263.742188 219.554688 C 263.929688 222.257812 264.28125 225.417969 264.957031 228.496094 Z M 264.957031 228.496094 " fill-opacity="0.38" fill-rule="nonzero"/><g clip-path="url(#fad3cc6272)"><path fill="#040051" d="M 234.832031 184.871094 C 209.625 176.6875 163.425781 174.929688 137.757812 183.414062 C 137.59375 181.277344 134.757812 148 134.703125 146.917969 C 129.625 151.132812 117.332031 146.054688 106.417969 138.410156 C 98.3125 132.359375 92.097656 121.90625 92.476562 111.9375 C 92.71875 102.484375 98.554688 93.679688 108.984375 86.789062 C 113.117188 78.144531 133.648438 63.910156 154.046875 71.257812 C 168.691406 62.667969 185.847656 62.398438 197.332031 77.496094 C 205.625 73.554688 216.839844 71.015625 226.160156 80.953125 C 252.449219 73.175781 274.628906 86.546875 276.765625 111.910156 C 279.113281 139.761719 260.148438 150.078125 234.101562 155.265625 C 233.914062 162.667969 234.535156 179.253906 234.832031 184.871094 Z M 234.832031 184.871094 " fill-opacity="1" fill-rule="nonzero"/></g><path fill="#ffffff" d="M 228.808594 152.753906 C 228.484375 163.992188 228.78125 178.496094 228.78125 178.496094 C 228.78125 178.496094 219.917969 175.417969 205.570312 173.308594 C 189.496094 170.933594 166.503906 169.824219 141.296875 175.578125 L 139.484375 152.214844 C 139.484375 152.160156 139.433594 151.347656 139.324219 150.078125 L 139.296875 149.808594 C 139.1875 148.242188 139.027344 146.082031 138.835938 143.839844 L 138.8125 143.40625 L 138.785156 142.976562 L 138.730469 142.328125 L 138.675781 141.460938 L 138.648438 141.03125 L 138.621094 140.597656 C 138.621094 140.515625 138.621094 140.464844 138.59375 140.382812 L 138.539062 139.761719 C 138.511719 139.492188 138.511719 139.222656 138.488281 138.949219 L 138.433594 138.355469 C 138.433594 138.300781 138.433594 138.222656 138.433594 138.167969 L 138.378906 137.601562 C 138.351562 137.304688 138.324219 137.03125 138.324219 136.761719 C 148.1875 135.925781 158.5625 130.578125 169.125 123.582031 C 169.125 123.527344 189.089844 147.269531 228.808594 152.753906 Z M 228.808594 152.753906 " fill-opacity="1" fill-rule="nonzero"/><path fill="#ffffff" d="M 255.285156 142.355469 C 256.3125 138.410156 257.339844 134.414062 258.367188 130.46875 C 255.070312 136.574219 248.746094 144.324219 241.074219 147.488281 C 243.964844 145.460938 246.070312 142.382812 246.9375 138.976562 C 218.488281 159.34375 181.796875 132.359375 168.289062 105.535156 C 167.828125 104.617188 167.394531 103.699219 166.992188 102.78125 C 166.585938 107.128906 167.125 111.234375 168.476562 115.234375 L 168.476562 115.261719 C 168.53125 115.421875 168.558594 115.558594 168.613281 115.691406 C 168.585938 115.691406 168.53125 115.691406 168.503906 115.691406 C 155.96875 115.503906 148.96875 106.238281 143.648438 94.300781 C 143.753906 105.457031 147.402344 114.773438 157.886719 120.851562 C 134.8125 137.03125 115.441406 132.980469 110.683594 104.886719 C 108.847656 131.117188 123.195312 135.710938 134.082031 140.03125 C 114.628906 141.785156 89.339844 128.144531 102.28125 98.433594 C 102.308594 101 102.796875 103.863281 103.6875 106.726562 C 111.847656 83.007812 129.597656 73.363281 155.859375 76.175781 C 182.390625 62.855469 206.734375 81.386719 194.710938 111.261719 C 198.277344 106.023438 201.085938 100.699219 202.976562 95.246094 C 204.003906 102.160156 201.113281 109.9375 196.871094 118.015625 C 206.761719 108.425781 211.867188 97.214844 201.789062 81.007812 C 223.703125 78.847656 235.15625 88.300781 228.347656 117.988281 C 231.480469 112.613281 233.535156 106.375 234.320312 99.082031 C 235.347656 107.804688 233.886719 116.855469 229.753906 126.28125 C 240.210938 116.152344 245.097656 103.539062 234.183594 83.871094 C 241.34375 82.144531 247.773438 82.898438 253.230469 85.277344 L 253.257812 85.304688 C 274.792969 94.757812 281.113281 130.0625 255.285156 142.355469 Z M 255.285156 142.355469 " fill-opacity="1" fill-rule="nonzero"/><path fill="#040051" d="M 172.664062 119.664062 C 166.585938 119.691406 160.777344 122.09375 155.15625 124.445312 C 148.96875 127.039062 142.808594 129.632812 136.621094 132.25 C 135.433594 132.738281 134.027344 133.519531 134 134.789062 C 133.972656 135.546875 134.460938 136.222656 134.839844 136.871094 C 135.59375 138.113281 137 140.492188 136.433594 141.949219 C 135.8125 143.542969 134.109375 144.730469 132.515625 145.246094 C 130.488281 145.894531 128.273438 145.757812 126.167969 145.40625 C 114.304688 143.515625 99.390625 130.738281 95.933594 120.394531 C 99.417969 125.6875 109.46875 125.390625 110.035156 101.671875 C 113.523438 113.449219 122.519531 122.015625 130.839844 121.339844 C 128.679688 120.445312 127.4375 119.394531 126.246094 117.582031 C 133.433594 119.878906 141.027344 120.878906 148.5625 120.554688 C 144.621094 117.367188 141.863281 112.777344 140.863281 107.804688 C 139.863281 102.863281 140.945312 95.054688 143.351562 90.625 C 146.429688 97.164062 151.941406 104.835938 158.777344 107.183594 C 157.238281 105.726562 156.617188 104.511719 156.074219 103.292969 C 157.535156 104.535156 159.183594 105.589844 161.207031 106.320312 C 162.476562 106.777344 163.910156 106.320312 164.695312 105.210938 C 165.667969 103.863281 166.53125 102.214844 166.855469 100.566406 C 167.558594 107.210938 168.960938 114.097656 172.664062 119.664062 Z M 172.664062 119.664062 " fill-opacity="0.42" fill-rule="nonzero"/><path fill="#040051" d="M 168.476562 115.234375 C 168.53125 115.394531 168.558594 115.53125 168.613281 115.664062 C 168.585938 115.664062 168.53125 115.664062 168.503906 115.664062 C 168.476562 115.53125 168.476562 115.394531 168.476562 115.234375 Z M 168.476562 115.234375 " fill-opacity="1" fill-rule="nonzero"/><path fill="#040051" d="M 255.285156 142.355469 C 256.3125 138.410156 257.339844 134.414062 258.367188 130.46875 C 255.070312 136.574219 248.746094 144.324219 241.074219 147.488281 C 243.964844 145.460938 246.070312 142.382812 246.9375 138.976562 C 218.488281 159.34375 181.796875 132.359375 168.289062 105.535156 C 170.609375 102.59375 184.09375 135.386719 217.59375 139.570312 C 214.8125 138.410156 212.03125 137.222656 209.246094 136.035156 C 227.214844 140.679688 247.746094 132.792969 257.90625 117.257812 C 257.445312 119.152344 256.988281 121.042969 256.5 122.933594 C 258.851562 121.015625 260.363281 118.152344 260.636719 115.152344 C 262.796875 120.851562 263.363281 125.203125 262.796875 130.0625 C 269.792969 114.910156 265.28125 96.269531 253.230469 85.304688 C 274.792969 94.757812 281.113281 130.0625 255.285156 142.355469 Z M 255.285156 142.355469 " fill-opacity="0.42" fill-rule="nonzero"/><path fill="#040051" d="M 228.808594 152.753906 C 228.484375 163.992188 228.78125 178.496094 228.78125 178.496094 C 228.78125 178.496094 219.917969 175.417969 205.570312 173.308594 C 204.597656 171.796875 203.816406 170.148438 203.382812 168.394531 C 202.410156 164.558594 202.355469 163.667969 205.4375 161.183594 C 203.382812 160.882812 202.355469 156.777344 200.382812 156.15625 C 195.035156 154.429688 190.441406 151.457031 185.714844 148.566406 C 181.09375 145.757812 177.527344 141.515625 172.851562 138.761719 C 166.992188 135.304688 159.613281 134.519531 153.15625 136.707031 C 157.15625 137.058594 161.046875 138.464844 164.371094 140.734375 C 159.777344 138.574219 154.210938 138.492188 149.5625 140.597656 C 147.078125 141.707031 144.890625 143.40625 143.160156 145.515625 C 142.296875 146.566406 141.511719 147.757812 140.917969 149 C 140.621094 149.59375 140.351562 150.214844 140.132812 150.835938 C 140.054688 151.078125 139.511719 152.023438 139.511719 152.242188 C 139.511719 152.1875 139.460938 151.375 139.351562 150.105469 L 139.324219 149.835938 C 139.214844 148.269531 139.054688 146.109375 138.863281 143.867188 C 138.863281 143.730469 138.835938 143.570312 138.835938 143.433594 C 138.835938 143.300781 138.8125 143.136719 138.8125 143.003906 C 138.785156 142.785156 138.785156 142.570312 138.757812 142.355469 C 138.757812 142.21875 138.730469 142.058594 138.730469 141.921875 C 138.730469 141.785156 138.703125 141.625 138.703125 141.488281 C 138.703125 141.355469 138.675781 141.191406 138.675781 141.058594 C 138.675781 140.921875 138.648438 140.789062 138.648438 140.625 C 138.648438 140.542969 138.648438 140.492188 138.621094 140.410156 C 138.59375 140.191406 138.59375 139.976562 138.566406 139.789062 C 138.539062 139.519531 138.539062 139.246094 138.511719 138.976562 C 138.488281 138.789062 138.488281 138.574219 138.460938 138.382812 C 138.460938 138.328125 138.460938 138.25 138.460938 138.195312 C 138.460938 138.003906 138.433594 137.816406 138.40625 137.628906 C 138.378906 137.328125 138.351562 137.058594 138.351562 136.789062 C 148.210938 135.953125 158.585938 130.605469 169.152344 123.609375 C 169.125 123.527344 189.0625 147.269531 228.808594 152.753906 Z M 228.808594 152.753906 " fill-opacity="0.46" fill-rule="nonzero"/><path fill="#040051" d="M 254.824219 187.167969 L 249.503906 181.710938 L 250.339844 180.902344 C 250.558594 180.710938 255.472656 175.902344 262.257812 171.015625 C 266.632812 167.878906 270.792969 165.394531 274.65625 163.640625 C 272.144531 153.539062 275.898438 143.949219 285.085938 137.25 C 290.003906 133.65625 296.109375 131.144531 302.324219 130.144531 C 304.160156 129.847656 305.945312 129.710938 307.644531 129.710938 C 311.96875 129.710938 315.671875 130.683594 318.34375 132.523438 L 318.5625 132.683594 C 325.503906 138.085938 325.613281 148.433594 318.832031 159.046875 C 314.886719 165.207031 309.132812 170.445312 303.082031 173.445312 C 299.191406 175.363281 295.300781 176.335938 291.488281 176.335938 C 288.273438 176.335938 285.167969 175.632812 282.25 174.253906 C 279.464844 175.742188 273.441406 179.171875 267.441406 183.574219 C 265.929688 184.683594 264.472656 185.84375 263.09375 186.980469 L 262.203125 187.707031 L 259.472656 184.4375 C 257.582031 186.085938 256.445312 187.195312 256.445312 187.195312 L 255.609375 188.003906 Z M 254.824219 187.167969 " fill-opacity="1" fill-rule="nonzero"/><path fill="#ffffff" d="M 259.203125 184.332031 C 260.6875 183.089844 263.335938 181.144531 264.851562 180.035156 C 271.523438 175.121094 278.0625 171.472656 280.871094 169.988281 C 281.707031 169.554688 282.707031 169.527344 283.546875 169.960938 C 303.484375 180.304688 328.9375 146.296875 315.859375 136.140625 C 305.675781 129.171875 272.253906 140.515625 279.222656 163.695312 C 279.65625 165.097656 278.953125 166.609375 277.601562 167.179688 C 273.117188 169.070312 268.660156 171.851562 264.824219 174.605469 C 258.203125 179.359375 253.394531 184.0625 253.394531 184.0625 Z M 259.203125 184.332031 " fill-opacity="1" fill-rule="nonzero"/><path fill="#040051" d="M 259.203125 184.332031 C 260.6875 183.089844 263.335938 181.144531 264.851562 180.035156 C 271.523438 175.121094 278.0625 171.472656 280.871094 169.988281 C 281.707031 169.554688 282.707031 169.527344 283.546875 169.960938 C 303.484375 180.304688 328.9375 146.296875 315.859375 136.140625 C 305.675781 129.171875 272.253906 140.515625 279.222656 163.695312 C 279.65625 165.097656 278.953125 166.609375 277.601562 167.179688 C 273.117188 169.070312 268.660156 171.851562 264.824219 174.605469 C 258.203125 179.359375 253.394531 184.0625 253.394531 184.0625 Z M 259.203125 184.332031 " fill-opacity="0.19" fill-rule="nonzero"/><path fill="#ffffff" d="M 317.238281 137.4375 C 316.96875 137.140625 316.644531 136.871094 316.320312 136.628906 C 306.132812 129.660156 272.710938 141.003906 279.683594 164.179688 C 280.113281 165.585938 279.414062 167.097656 278.0625 167.664062 C 273.578125 169.554688 269.117188 172.335938 265.28125 175.09375 C 260.039062 178.875 255.933594 182.601562 254.449219 183.980469 L 253.421875 184.0625 C 253.421875 184.0625 258.230469 179.359375 264.851562 174.605469 C 268.6875 171.851562 273.144531 169.070312 277.628906 167.179688 C 278.980469 166.609375 279.683594 165.097656 279.25 163.695312 C 272.28125 140.515625 305.699219 129.199219 315.886719 136.140625 C 316.371094 136.546875 316.832031 136.980469 317.238281 137.4375 Z M 317.238281 137.4375 " fill-opacity="1" fill-rule="nonzero"/><path fill="#040051" d="M 257.339844 176.121094 C 257.339844 176.121094 260.363281 181.117188 265.148438 183.222656 C 263.203125 184.140625 256.691406 189.652344 256.691406 189.652344 L 253.042969 180.28125 Z M 257.339844 176.121094 " fill-opacity="0.38" fill-rule="nonzero"/><path fill="#040051" d="M 318.722656 139.949219 C 322.316406 153.132812 300.648438 178.011719 283.222656 168.960938 C 282.382812 168.527344 281.382812 168.527344 280.546875 168.988281 C 277.738281 170.472656 271.171875 174.121094 264.527344 179.035156 C 262.984375 180.171875 260.203125 182.089844 258.691406 183.332031 L 256.3125 182.84375 L 256.3125 183.84375 L 259.203125 184.304688 C 260.6875 183.0625 263.335938 181.117188 264.851562 180.007812 C 271.523438 175.09375 278.0625 171.445312 280.871094 169.960938 C 281.707031 169.527344 282.707031 169.5 283.546875 169.933594 C 301.433594 179.253906 323.75 152.835938 318.722656 139.949219 Z M 318.722656 139.949219 " fill-opacity="0.38" fill-rule="nonzero"/><path fill="#040051" d="M 312.210938 154.78125 C 307.566406 161.804688 300.460938 167.71875 292.867188 167.960938 C 288.921875 168.097656 285.25 166.179688 283.167969 163.074219 C 282.410156 161.964844 281.871094 160.695312 281.601562 159.316406 C 278.738281 145.570312 303.753906 133.628906 312.726562 138.519531 C 312.753906 138.546875 312.78125 138.546875 312.804688 138.574219 C 313.859375 139.167969 314.671875 139.976562 315.183594 141.058594 C 316.535156 143.839844 315.914062 148.269531 312.210938 154.78125 Z M 312.210938 154.78125 " fill-opacity="0.14" fill-rule="nonzero"/><path fill="#ffffff" d="M 313.265625 155.375 C 308.457031 162.640625 301.109375 168.746094 293.246094 168.988281 C 289.164062 169.125 285.382812 167.152344 283.222656 163.9375 C 282.464844 162.800781 281.898438 161.480469 281.601562 160.074219 C 281.410156 159.183594 281.359375 158.320312 281.382812 157.453125 C 281.410156 158.074219 281.464844 158.695312 281.601562 159.316406 C 281.871094 160.695312 282.4375 161.964844 283.167969 163.074219 C 285.25 166.179688 288.921875 168.097656 292.867188 167.960938 C 300.488281 167.71875 307.566406 161.804688 312.210938 154.78125 C 315.941406 148.269531 316.535156 143.839844 315.210938 141.085938 C 314.699219 140.003906 313.886719 139.167969 312.832031 138.597656 C 312.804688 138.574219 312.78125 138.574219 312.753906 138.546875 C 311.457031 137.84375 309.808594 137.492188 307.96875 137.4375 C 310.238281 137.382812 312.265625 137.734375 313.804688 138.574219 C 313.832031 138.597656 313.859375 138.597656 313.914062 138.625 C 314.996094 139.246094 315.832031 140.085938 316.371094 141.21875 C 317.722656 144.054688 317.101562 148.648438 313.265625 155.375 Z M 313.265625 155.375 " fill-opacity="1" fill-rule="nonzero"/><path fill="#040051" d="M 315.183594 141.085938 C 309.402344 142.085938 304.132812 143.433594 300.488281 147.566406 C 295.324219 154.589844 290.246094 152.050781 288.734375 159.371094 C 288.382812 160.585938 287.949219 161.855469 287.03125 162.75 C 285.707031 163.992188 284.355469 163.882812 283.140625 163.101562 C 273.820312 148.296875 302.863281 133.089844 312.699219 138.546875 C 313.777344 139.113281 314.671875 139.949219 315.183594 141.085938 Z M 315.183594 141.085938 " fill-opacity="0.14" fill-rule="nonzero"/><path fill="#040051" d="M 315.050781 140.8125 C 306.375 135.464844 280.734375 147.511719 283.601562 161.425781 C 283.925781 162.9375 284.546875 164.316406 285.410156 165.503906 C 283.492188 163.992188 282.085938 161.828125 281.574219 159.289062 C 278.414062 144 309.726562 130.980469 315.050781 140.8125 Z M 315.050781 140.8125 " fill-opacity="0.38" fill-rule="nonzero"/><path fill="#040051" d="M 166.667969 163.613281 L 166.882812 159.886719 C 167.367188 151.863281 175.257812 145.8125 185.226562 145.8125 C 195.195312 145.8125 203.113281 151.863281 203.574219 159.886719 L 203.789062 163.613281 Z M 166.667969 163.613281 " fill-opacity="1" fill-rule="nonzero"/><path fill="#040051" d="M 129.246094 271.933594 L 129.164062 271.933594 C 122.222656 271.527344 116.84375 268.609375 113.199219 263.234375 C 104.796875 250.917969 108.902344 229.332031 111.628906 215.070312 C 112.0625 212.855469 112.496094 210.558594 112.792969 208.722656 L 113.765625 202.753906 L 119.167969 202.863281 C 134.757812 203.238281 158.859375 203.457031 185.308594 203.457031 C 199.277344 203.457031 213.378906 203.402344 226.160156 203.265625 C 235.453125 203.1875 244.179688 203.050781 251.421875 202.863281 L 256.527344 202.753906 L 257.742188 208.316406 C 259.851562 218.097656 263.230469 236.601562 262.066406 250.429688 L 262.066406 250.511719 C 261.445312 256.699219 259.148438 261.992188 255.472656 265.773438 C 251.800781 269.554688 246.9375 271.6875 241.371094 271.933594 L 241.261719 271.933594 L 185.308594 272.285156 Z M 129.246094 271.933594 " fill-opacity="1" fill-rule="nonzero"/><path fill="#ffba06" d="M 255.960938 245.324219 C 255.933594 246.863281 255.878906 248.351562 255.746094 249.78125 C 254.746094 259.535156 248.773438 264.503906 241.15625 264.828125 C 241.15625 264.828125 224.105469 264.9375 208.867188 265.042969 C 196.519531 265.125 185.363281 265.207031 185.363281 265.207031 L 129.542969 264.855469 C 118.464844 264.207031 114.953125 255.480469 114.601562 244.785156 C 114.546875 243.300781 114.574219 241.8125 114.628906 240.273438 C 114.683594 238.84375 114.792969 237.410156 114.898438 235.980469 C 115.710938 226.820312 117.84375 217.421875 118.925781 211.074219 C 118.980469 210.722656 119.035156 210.371094 119.085938 210.046875 C 142.835938 210.613281 183.851562 210.777344 217.324219 210.507812 C 224.027344 210.453125 230.429688 210.398438 236.320312 210.316406 C 241.507812 210.234375 246.289062 210.15625 250.558594 210.074219 C 250.910156 210.074219 251.257812 210.046875 251.609375 210.046875 C 251.609375 210.101562 251.636719 210.183594 251.664062 210.234375 C 253.449219 218.503906 255.527344 230.359375 255.933594 240.867188 C 255.960938 242.382812 255.960938 243.867188 255.960938 245.324219 Z M 255.960938 245.324219 " fill-opacity="1" fill-rule="nonzero"/><path fill="#ffffff" d="M 123.382812 256.347656 C 115.871094 255.050781 118.007812 248.324219 115.546875 244.730469 C 115.492188 243.246094 115.519531 241.757812 115.574219 240.21875 C 115.628906 238.789062 115.738281 237.355469 115.84375 235.925781 C 116.65625 226.769531 118.789062 217.367188 119.871094 211.019531 L 127.300781 210.128906 C 127.300781 210.15625 120.113281 224.769531 123.382812 256.347656 Z M 123.382812 256.347656 " fill-opacity="0.74" fill-rule="nonzero"/><path fill="#ffffff" d="M 134.191406 259.480469 C 126.679688 258.183594 128.785156 259.425781 126.328125 255.859375 C 125.464844 243.027344 128.21875 222.203125 130.570312 211.316406 L 138.109375 213.261719 C 138.109375 213.261719 132.597656 235.382812 134.191406 259.480469 Z M 134.191406 259.480469 " fill-opacity="0.74" fill-rule="nonzero"/><path fill="#040051" d="M 111.277344 213.558594 C 104.199219 213.558594 98.472656 207.128906 98.472656 199.1875 C 98.472656 194.730469 101.6875 191.136719 105.660156 191.136719 L 265.796875 191.136719 C 269.253906 191.136719 272.0625 194.273438 272.0625 198.160156 C 272.0625 206.671875 265.902344 213.558594 258.3125 213.558594 Z M 111.277344 213.558594 " fill-opacity="1" fill-rule="nonzero"/><path fill="#ffba06" d="M 265.6875 198.269531 C 265.6875 202.78125 262.417969 206.425781 258.390625 206.425781 L 112.089844 206.425781 C 108.0625 206.425781 104.796875 202.78125 104.796875 198.269531 Z M 265.6875 198.269531 " fill-opacity="1" fill-rule="nonzero"/><path fill="#040051" d="M 265.6875 198.269531 C 265.6875 202.78125 262.417969 206.425781 258.390625 206.425781 L 112.089844 206.425781 C 108.0625 206.425781 104.796875 202.78125 104.796875 198.269531 Z M 265.6875 198.269531 " fill-opacity="0.22" fill-rule="nonzero"/><path fill="#040051" d="M 101.121094 201.890625 L 106.09375 191.410156 C 109.144531 184.980469 113.871094 179.226562 120.113281 174.363281 C 125.625 170.042969 132.378906 166.394531 140.132812 163.476562 C 153.375 158.507812 169.476562 155.753906 185.445312 155.753906 C 201.410156 155.753906 217.648438 158.507812 230.671875 163.476562 C 246.9375 169.71875 258.285156 179.0625 264.363281 191.300781 L 269.632812 201.890625 Z M 101.121094 201.890625 " fill-opacity="1" fill-rule="nonzero"/><path fill="#ffba06" d="M 258.796875 194.785156 L 111.710938 194.785156 C 121.976562 173.148438 155.292969 162.316406 188.011719 162.910156 C 190.65625 162.964844 193.332031 163.074219 195.980469 163.289062 C 196.144531 163.289062 196.304688 163.316406 196.46875 163.316406 C 196.871094 163.34375 197.304688 163.398438 197.710938 163.421875 C 198.140625 163.449219 198.546875 163.503906 198.980469 163.53125 C 199.386719 163.558594 199.761719 163.613281 200.140625 163.640625 C 201.332031 163.773438 202.519531 163.910156 203.707031 164.070312 C 204.574219 164.179688 205.464844 164.316406 206.328125 164.449219 C 210.839844 165.152344 215.246094 166.097656 219.511719 167.285156 C 221.324219 167.800781 223.132812 168.339844 224.863281 168.933594 C 240.261719 174.148438 252.800781 182.738281 258.796875 194.785156 Z M 258.796875 194.785156 " fill-opacity="1" fill-rule="nonzero"/><path fill="#ffffff" d="M 197.710938 163.421875 C 139.945312 165.585938 125.085938 194.785156 125.085938 194.785156 L 116.816406 194.785156 C 126.542969 174.253906 156.992188 163.476562 187.984375 162.910156 C 190.820312 162.964844 193.628906 163.101562 196.441406 163.316406 C 196.871094 163.34375 197.304688 163.371094 197.710938 163.421875 Z M 197.710938 163.421875 " fill-opacity="0.74" fill-rule="nonzero"/><path fill="#ffffff" d="M 203.707031 164.097656 C 154.128906 168.988281 141.027344 194.785156 141.027344 194.785156 L 132.757812 194.785156 C 141.648438 176.039062 167.855469 165.394531 195.980469 163.289062 C 196.144531 163.289062 196.304688 163.316406 196.46875 163.316406 C 196.871094 163.34375 197.304688 163.398438 197.710938 163.421875 C 198.140625 163.449219 198.546875 163.503906 198.980469 163.53125 C 199.386719 163.558594 199.761719 163.613281 200.140625 163.640625 C 201.332031 163.773438 202.519531 163.9375 203.707031 164.097656 Z M 203.707031 164.097656 " fill-opacity="0.74" fill-rule="nonzero"/><path fill="#ffba06" d="M 200.492188 159.832031 C 195.359375 159.15625 190.386719 158.75 185.550781 158.695312 C 184.957031 158.695312 184.363281 158.667969 183.769531 158.695312 L 183.578125 158.695312 C 180.6875 158.722656 177.851562 158.859375 175.097656 159.15625 C 173.367188 159.34375 171.664062 159.5625 169.988281 159.859375 C 170.339844 153.835938 177.015625 149.054688 185.226562 149.054688 C 187.957031 149.054688 190.523438 149.59375 192.738281 150.511719 C 194.683594 151.320312 196.359375 152.457031 197.65625 153.808594 C 199.332031 155.480469 200.359375 157.5625 200.492188 159.832031 Z M 200.492188 159.832031 " fill-opacity="1" fill-rule="nonzero"/><path fill="#040051" d="M 255.960938 245.324219 C 255.933594 246.863281 255.878906 248.351562 255.746094 249.78125 C 254.746094 259.535156 248.773438 264.503906 241.15625 264.828125 C 241.15625 264.828125 224.105469 264.9375 208.867188 265.042969 C 196.519531 265.125 185.363281 265.207031 185.363281 265.207031 L 129.542969 264.855469 C 118.464844 264.207031 114.953125 255.480469 114.601562 244.785156 C 114.546875 243.300781 114.574219 241.8125 114.628906 240.273438 C 114.683594 238.84375 114.792969 237.410156 114.898438 235.980469 C 132.8125 251.023438 159.316406 258.695312 186.039062 259.15625 C 191.226562 259.238281 196.359375 257.777344 200.683594 254.886719 C 200.707031 254.859375 200.734375 254.859375 200.761719 254.832031 C 209.382812 249.105469 216.917969 240.761719 220.484375 230.253906 C 218.164062 231.875 215.839844 233.46875 213.515625 235.085938 C 217.890625 228.792969 218.488281 221.121094 216.917969 213.585938 C 216.59375 212.019531 216.785156 211.128906 217.351562 210.535156 C 224.050781 210.480469 230.457031 210.425781 236.34375 210.34375 C 241.53125 210.261719 246.316406 210.183594 250.585938 210.101562 C 250.933594 210.101562 251.285156 210.074219 251.636719 210.074219 C 251.636719 210.128906 251.664062 210.210938 251.691406 210.261719 C 253.476562 218.527344 255.554688 230.386719 255.960938 240.894531 C 255.960938 242.382812 255.960938 243.867188 255.960938 245.324219 Z M 255.960938 245.324219 " fill-opacity="0.22" fill-rule="nonzero"/><path fill="#040051" d="M 255.960938 245.324219 C 255.933594 246.863281 255.878906 248.351562 255.746094 249.78125 C 254.746094 259.535156 248.773438 264.503906 241.15625 264.828125 C 241.15625 264.828125 224.105469 264.9375 208.867188 265.042969 C 209.058594 264.910156 209.246094 264.746094 209.460938 264.585938 C 235.15625 253.644531 235.804688 229.710938 237.238281 228.792969 C 233.996094 230.875 230.753906 232.953125 227.511719 235.035156 C 232.210938 228.039062 234.050781 219.203125 232.5625 210.9375 C 233.832031 210.695312 235.101562 210.480469 236.34375 210.289062 C 241.289062 209.589844 246.097656 209.425781 250.585938 210.046875 C 250.960938 210.101562 251.3125 210.15625 251.691406 210.210938 C 253.476562 218.476562 255.554688 230.332031 255.960938 240.839844 C 255.960938 242.382812 255.988281 243.867188 255.960938 245.324219 Z M 255.960938 245.324219 " fill-opacity="0.39" fill-rule="nonzero"/><path fill="#040051" d="M 265.6875 198.269531 L 265.6875 206.425781 L 216.027344 206.425781 C 217.867188 203.996094 218.539062 200 217.890625 198.269531 Z M 265.6875 198.269531 " fill-opacity="0.22" fill-rule="nonzero"/><path fill="#040051" d="M 244.371094 195.378906 C 240.507812 188.921875 234.644531 183.980469 228.539062 180.386719 C 224 177.660156 219.027344 175.824219 214.054688 174.390625 C 224.648438 175.523438 235.15625 179.035156 243.75 186.355469 C 246.394531 188.652344 249.421875 191.976562 251.3125 195.378906 Z M 244.371094 195.378906 " fill-opacity="1" fill-rule="nonzero"/><path fill="#040051" d="M 217.082031 195.488281 C 217.082031 195.488281 255.960938 183.089844 225.160156 166.179688 C 234.074219 168.851562 249.828125 178.117188 249.828125 178.117188 L 259.09375 189.382812 L 261.230469 195.082031 Z M 217.082031 195.488281 " fill-opacity="0.39" fill-rule="nonzero"/><path fill="#040051" d="M 200.707031 159.914062 C 195.574219 159.238281 190.605469 158.832031 185.769531 158.777344 C 194.035156 158.589844 196.953125 155.347656 197.871094 153.835938 C 199.574219 155.5625 200.574219 157.644531 200.707031 159.914062 Z M 200.707031 159.914062 " fill-opacity="0.42" fill-rule="nonzero"/><g clip-path="url(#576f87cb87)"><path fill="#040051" d="M 302.730469 260.910156 C 303.863281 261.9375 303.917969 263.695312 302.863281 264.800781 C 273.304688 295.917969 226.671875 311.234375 182.957031 309.695312 C 139.484375 308.5625 94.121094 290.949219 68.050781 257.183594 C 67.105469 255.96875 67.347656 254.238281 68.5625 253.320312 L 96.203125 232.84375 C 99.90625 230.117188 105.066406 230.628906 108.144531 234.035156 C 110.144531 236.222656 112.277344 238.300781 114.574219 240.246094 C 149.507812 269.90625 217.515625 271.175781 255.933594 245.351562 C 259.3125 243.082031 262.472656 240.570312 265.363281 237.871094 C 268.765625 234.683594 274.035156 234.683594 277.46875 237.816406 L 302.433594 260.695312 Z M 302.730469 260.910156 " fill-opacity="1" fill-rule="nonzero"/></g><g clip-path="url(#4a3cb89038)"><path stroke-linecap="butt" transform="matrix(0.27018, 0, 0, 0.270124, 25.632179, 65.341899)" fill="none" stroke-linejoin="miter" d="M 604.706018 885.003711 C 597.50596 885.003711 590.204696 884.902484 583.004638 884.598803 L 582.802227 884.598803 C 503.196765 882.501963 423.89492 865.206644 353.499172 834.404779 C 282.496189 803.299234 222.3945 759.005285 179.092945 705.904606 L 273.098523 636.202734 C 276.004571 634.105894 278.89616 633.59976 280.804609 633.59976 C 284.60705 633.59976 288.004668 635.103701 290.607098 637.894668 C 298.399932 646.498945 307.103617 654.900768 316.298872 662.69523 C 384.800629 720.799405 489.201471 754.204244 602.696363 754.204244 C 702.600784 754.204244 795.305146 728.897547 863.604492 682.998431 C 877.194963 673.902481 889.802294 663.895491 901.093951 653.2956 C 903.493971 651.097533 906.602429 649.796046 909.898842 649.796046 C 913.195254 649.796046 916.303712 650.996306 918.804937 653.2956 L 1004.598401 731.905429 C 957.595612 779.106033 896.496324 817.803586 827.300585 844.296082 C 757.700023 870.904266 680.696992 885.003711 604.706018 885.003711 Z M 604.706018 885.003711 " stroke="#ff2400" stroke-width="6" stroke-opacity="1" stroke-miterlimit="10"/></g><path fill="#ffffff" d="M 192.738281 150.457031 C 176.394531 148.296875 175.121094 159.128906 175.121094 159.128906 C 173.394531 159.316406 171.691406 159.535156 170.015625 159.832031 C 170.367188 153.808594 177.042969 149.027344 185.253906 149.027344 C 187.984375 149.027344 190.523438 149.539062 192.738281 150.457031 Z M 192.738281 150.457031 " fill-opacity="0.74" fill-rule="nonzero"/><g fill="#ffffff" fill-opacity="1"><g transform="translate(90.436591, 261.171068)"><g><path d="M 27.078125 -4.265625 C 28.347656 -3.347656 28.523438 -2.253906 27.609375 -0.984375 C 26.910156 0.00390625 26.207031 0.984375 25.5 1.953125 C 24.789062 2.929688 24.085938 3.910156 23.390625 4.890625 C 22.679688 5.890625 21.976562 6.882812 21.28125 7.875 C 20.582031 8.863281 19.882812 9.84375 19.1875 10.8125 C 18.269531 12.09375 17.175781 12.273438 15.90625 11.359375 L 15.5 11.078125 C 14.21875 10.160156 14.035156 9.0625 14.953125 7.78125 C 15.660156 6.820312 16.367188 5.851562 17.078125 4.875 C 17.785156 3.894531 18.492188 2.90625 19.203125 1.90625 L 21.3125 -1.078125 L 21.234375 -1.140625 L 13.34375 4.453125 C 12.238281 5.234375 11.320312 5.359375 10.59375 4.828125 C 9.832031 4.285156 9.664062 3.378906 10.09375 2.109375 L 13.015625 -7.015625 L 12.90625 -7.09375 C 11.945312 -5.71875 11.101562 -4.503906 10.375 -3.453125 C 9.644531 -2.410156 8.988281 -1.457031 8.40625 -0.59375 C 7.832031 0.269531 7.28125 1.097656 6.75 1.890625 C 6.332031 2.554688 5.847656 2.9375 5.296875 3.03125 C 4.742188 3.132812 4.164062 2.972656 3.5625 2.546875 C 2.957031 2.117188 2.609375 1.625 2.515625 1.0625 C 2.429688 0.5 2.625 -0.0820312 3.09375 -0.6875 C 5.914062 -4.613281 8.722656 -8.546875 11.515625 -12.484375 C 11.929688 -13.109375 12.425781 -13.46875 13 -13.5625 C 13.570312 -13.65625 14.164062 -13.484375 14.78125 -13.046875 L 16.859375 -11.5625 C 17.941406 -10.789062 18.3125 -9.769531 17.96875 -8.5 L 16.25 -1.984375 L 21.46875 -5.875 C 22.550781 -6.695312 23.648438 -6.707031 24.765625 -5.90625 Z M 27.078125 -4.265625 "/></g></g></g><g fill="#ffffff" fill-opacity="1"><g transform="translate(112.610147, 276.432133)"><g><path d="M 16.609375 -13.5 C 17.679688 -12.957031 18.492188 -12.234375 19.046875 -11.328125 C 19.609375 -10.421875 19.875 -9.253906 19.84375 -7.828125 C 19.8125 -6.398438 19.453125 -4.632812 18.765625 -2.53125 C 18.078125 -0.4375 17.039062 2.078125 15.65625 5.015625 C 15.3125 5.734375 14.859375 6.191406 14.296875 6.390625 C 13.742188 6.597656 13.128906 6.535156 12.453125 6.203125 L 12.078125 6.015625 C 10.671875 5.316406 10.289062 4.320312 10.9375 3.03125 C 11.101562 2.695312 11.257812 2.375 11.40625 2.0625 C 11.5625 1.75 11.710938 1.429688 11.859375 1.109375 L 7.46875 -1.078125 C 7.332031 -0.816406 7.1875 -0.539062 7.03125 -0.25 C 6.882812 0.0390625 6.734375 0.34375 6.578125 0.65625 C 5.878906 2.0625 4.835938 2.414062 3.453125 1.71875 C 2.796875 1.382812 2.375 0.945312 2.1875 0.40625 C 2.007812 -0.132812 2.097656 -0.753906 2.453125 -1.453125 C 2.796875 -2.109375 3.128906 -2.738281 3.453125 -3.34375 C 3.785156 -3.957031 4.109375 -4.535156 4.421875 -5.078125 C 6.078125 -7.898438 7.59375 -10.023438 8.96875 -11.453125 C 10.351562 -12.890625 11.664062 -13.738281 12.90625 -14 C 14.144531 -14.269531 15.378906 -14.101562 16.609375 -13.5 Z M 9 -4 L 13.234375 -1.890625 C 14.054688 -3.785156 14.625 -5.300781 14.9375 -6.4375 C 15.257812 -7.582031 15.375 -8.4375 15.28125 -9 C 15.1875 -9.570312 14.929688 -9.960938 14.515625 -10.171875 C 14.109375 -10.367188 13.660156 -10.328125 13.171875 -10.046875 C 12.679688 -9.773438 12.109375 -9.15625 11.453125 -8.1875 C 10.796875 -7.21875 9.976562 -5.820312 9 -4 Z M 9 -4 "/></g></g></g><g fill="#ffffff" fill-opacity="1"><g transform="translate(131.06393, 285.388702)"><g><path d="M 7.59375 2.890625 C 4.09375 1.691406 2.421875 -0.207031 2.578125 -2.8125 C 2.628906 -3.59375 2.925781 -4.113281 3.46875 -4.375 C 4.007812 -4.644531 4.617188 -4.664062 5.296875 -4.4375 L 5.53125 -4.359375 C 5.945312 -4.210938 6.242188 -4.019531 6.421875 -3.78125 C 6.609375 -3.539062 6.757812 -3.253906 6.875 -2.921875 C 6.988281 -2.597656 7.132812 -2.226562 7.3125 -1.8125 C 7.570312 -1.320312 8.128906 -0.9375 8.984375 -0.65625 C 10.367188 -0.175781 11.242188 -0.472656 11.609375 -1.546875 C 11.816406 -2.160156 11.773438 -2.703125 11.484375 -3.171875 C 11.191406 -3.648438 10.765625 -4.113281 10.203125 -4.5625 C 9.640625 -5.019531 9.046875 -5.484375 8.421875 -5.953125 C 7.804688 -6.429688 7.238281 -6.96875 6.71875 -7.5625 C 6.207031 -8.15625 5.863281 -8.847656 5.6875 -9.640625 C 5.507812 -10.429688 5.601562 -11.359375 5.96875 -12.421875 C 6.644531 -14.398438 7.703125 -15.609375 9.140625 -16.046875 C 10.585938 -16.492188 12.363281 -16.359375 14.46875 -15.640625 C 16.519531 -14.941406 17.925781 -14 18.6875 -12.8125 C 19.445312 -11.632812 19.625 -10.238281 19.21875 -8.625 C 19.019531 -7.894531 18.648438 -7.414062 18.109375 -7.1875 C 17.578125 -6.957031 16.976562 -6.957031 16.3125 -7.1875 C 15.644531 -7.40625 15.238281 -7.757812 15.09375 -8.25 C 14.957031 -8.738281 14.929688 -9.375 15.015625 -10.15625 C 15.085938 -10.757812 14.972656 -11.226562 14.671875 -11.5625 C 14.378906 -11.894531 13.921875 -12.171875 13.296875 -12.390625 C 12.546875 -12.640625 11.953125 -12.625 11.515625 -12.34375 C 11.085938 -12.0625 10.769531 -11.609375 10.5625 -10.984375 C 10.351562 -10.367188 10.335938 -9.828125 10.515625 -9.359375 C 10.703125 -8.898438 11.023438 -8.472656 11.484375 -8.078125 C 11.941406 -7.691406 12.453125 -7.304688 13.015625 -6.921875 C 13.578125 -6.546875 14.132812 -6.144531 14.6875 -5.71875 C 15.238281 -5.300781 15.710938 -4.832031 16.109375 -4.3125 C 16.515625 -3.800781 16.78125 -3.203125 16.90625 -2.515625 C 17.03125 -1.835938 16.941406 -1.054688 16.640625 -0.171875 C 16.023438 1.628906 14.953125 2.789062 13.421875 3.3125 C 11.890625 3.84375 9.945312 3.703125 7.59375 2.890625 Z M 7.59375 2.890625 "/></g></g></g><g fill="#ffffff" fill-opacity="1"><g transform="translate(149.515308, 291.498948)"><g><path d="M 18.71875 -13.875 C 18.59375 -13.300781 18.296875 -12.890625 17.828125 -12.640625 C 17.367188 -12.398438 16.765625 -12.359375 16.015625 -12.515625 C 15.578125 -12.628906 15.15625 -12.722656 14.75 -12.796875 C 14.351562 -12.878906 13.945312 -12.960938 13.53125 -13.046875 L 12.359375 -7.28125 C 12.109375 -6.082031 11.863281 -4.894531 11.625 -3.71875 C 11.382812 -2.550781 11.140625 -1.367188 10.890625 -0.171875 C 10.765625 0.578125 10.460938 1.109375 9.984375 1.421875 C 9.503906 1.734375 8.890625 1.816406 8.140625 1.671875 L 7.65625 1.5625 C 6.113281 1.25 5.5 0.320312 5.8125 -1.21875 C 6.070312 -2.394531 6.328125 -3.570312 6.578125 -4.75 C 6.835938 -5.925781 7.09375 -7.113281 7.34375 -8.3125 C 7.53125 -9.28125 7.71875 -10.25 7.90625 -11.21875 C 8.09375 -12.1875 8.285156 -13.144531 8.484375 -14.09375 C 8.109375 -14.164062 7.722656 -14.238281 7.328125 -14.3125 C 6.941406 -14.394531 6.539062 -14.46875 6.125 -14.53125 C 5.363281 -14.695312 4.8125 -14.984375 4.46875 -15.390625 C 4.132812 -15.796875 4.03125 -16.285156 4.15625 -16.859375 C 4.40625 -18.066406 5.300781 -18.515625 6.84375 -18.203125 L 16.78125 -16.171875 C 18.320312 -15.847656 18.96875 -15.082031 18.71875 -13.875 Z M 18.71875 -13.875 "/></g></g></g><g fill="#ffffff" fill-opacity="1"><g transform="translate(168.040785, 295.108263)"><g><path d="M 7.546875 -3.109375 C 8.347656 -3.054688 9.15625 -3 9.96875 -2.9375 C 10.78125 -2.875 11.570312 -2.816406 12.34375 -2.765625 C 13.90625 -2.648438 14.632812 -1.984375 14.53125 -0.765625 C 14.4375 0.492188 13.609375 1.066406 12.046875 0.953125 L 4.421875 0.34375 C 3.660156 0.289062 3.09375 0.046875 2.71875 -0.390625 C 2.351562 -0.835938 2.210938 -1.4375 2.296875 -2.1875 C 2.390625 -3.394531 2.488281 -4.597656 2.59375 -5.796875 C 2.695312 -7.003906 2.796875 -8.210938 2.890625 -9.421875 C 2.984375 -10.617188 3.070312 -11.816406 3.15625 -13.015625 C 3.25 -14.222656 3.34375 -15.429688 3.4375 -16.640625 C 3.46875 -17.390625 3.695312 -17.945312 4.125 -18.3125 C 4.5625 -18.6875 5.160156 -18.847656 5.921875 -18.796875 L 13.28125 -18.21875 C 14.84375 -18.09375 15.578125 -17.421875 15.484375 -16.203125 C 15.390625 -14.941406 14.5625 -14.375 13 -14.5 C 12.257812 -14.570312 11.503906 -14.640625 10.734375 -14.703125 C 9.972656 -14.765625 9.21875 -14.832031 8.46875 -14.90625 L 8.140625 -10.6875 C 8.722656 -10.65625 9.300781 -10.613281 9.875 -10.5625 C 10.445312 -10.519531 11.007812 -10.488281 11.5625 -10.46875 C 13.125 -10.34375 13.859375 -9.660156 13.765625 -8.421875 C 13.660156 -7.171875 12.828125 -6.609375 11.265625 -6.734375 C 10.710938 -6.785156 10.148438 -6.832031 9.578125 -6.875 C 9.003906 -6.925781 8.425781 -6.988281 7.84375 -7.0625 Z M 7.546875 -3.109375 "/></g></g></g><g fill="#ffffff" fill-opacity="1"><g transform="translate(186.376274, 296.47771)"><g><path d="M 4.4375 -0.234375 C 2.863281 -0.148438 2.035156 -0.894531 1.953125 -2.46875 C 1.910156 -3.664062 1.859375 -4.863281 1.796875 -6.0625 C 1.742188 -7.269531 1.6875 -8.488281 1.625 -9.71875 C 1.550781 -10.914062 1.476562 -12.117188 1.40625 -13.328125 C 1.332031 -14.535156 1.25 -15.738281 1.15625 -16.9375 C 1.070312 -18.5 1.816406 -19.320312 3.390625 -19.40625 L 8.140625 -19.671875 C 10.953125 -19.828125 13.015625 -19.488281 14.328125 -18.65625 C 15.648438 -17.820312 16.363281 -16.390625 16.46875 -14.359375 C 16.539062 -13.128906 16.265625 -12.050781 15.640625 -11.125 C 15.023438 -10.195312 14.132812 -9.554688 12.96875 -9.203125 L 12.96875 -9.09375 C 13.90625 -8.863281 14.691406 -8.3125 15.328125 -7.4375 C 15.972656 -6.570312 16.535156 -5.289062 17.015625 -3.59375 C 17.242188 -2.769531 17.171875 -2.113281 16.796875 -1.625 C 16.421875 -1.132812 15.832031 -0.863281 15.03125 -0.8125 L 14.15625 -0.765625 C 12.707031 -0.691406 11.832031 -1.398438 11.53125 -2.890625 C 11.351562 -3.765625 11.125 -4.539062 10.84375 -5.21875 C 10.5625 -5.90625 10.1875 -6.445312 9.71875 -6.84375 C 9.257812 -7.238281 8.648438 -7.414062 7.890625 -7.375 L 6.875 -7.3125 C 6.914062 -6.550781 6.957031 -5.789062 7 -5.03125 C 7.039062 -4.269531 7.09375 -3.507812 7.15625 -2.75 C 7.238281 -1.175781 6.5 -0.347656 4.9375 -0.265625 Z M 6.703125 -10.359375 L 7.640625 -10.421875 C 8.953125 -10.484375 9.882812 -10.757812 10.4375 -11.25 C 10.988281 -11.738281 11.234375 -12.507812 11.171875 -13.5625 C 11.117188 -14.4375 10.828125 -15.050781 10.296875 -15.40625 C 9.765625 -15.757812 8.925781 -15.90625 7.78125 -15.84375 L 6.453125 -15.765625 C 6.460938 -15.078125 6.488281 -14.332031 6.53125 -13.53125 C 6.570312 -12.726562 6.628906 -11.671875 6.703125 -10.359375 Z M 6.703125 -10.359375 "/></g></g></g><g fill="#ffffff" fill-opacity="1"><g transform="translate(207.644004, 294.891567)"><g/></g></g><g fill="#ffffff" fill-opacity="1"><g transform="translate(216.888287, 293.578267)"><g><path d="M 9.125 -2.078125 C 6.457031 -1.390625 4.289062 -1.679688 2.625 -2.953125 C 0.96875 -4.234375 -0.273438 -6.46875 -1.109375 -9.65625 C -2.753906 -16.019531 -0.941406 -19.882812 4.328125 -21.25 C 6.316406 -21.769531 8.03125 -21.703125 9.46875 -21.046875 C 10.914062 -20.390625 11.953125 -19.171875 12.578125 -17.390625 C 12.847656 -16.648438 12.8125 -16.03125 12.46875 -15.53125 C 12.132812 -15.039062 11.601562 -14.703125 10.875 -14.515625 L 10.703125 -14.46875 C 9.972656 -14.28125 9.390625 -14.34375 8.953125 -14.65625 C 8.515625 -14.96875 8.144531 -15.5 7.84375 -16.25 C 7.550781 -16.914062 7.191406 -17.347656 6.765625 -17.546875 C 6.347656 -17.753906 5.800781 -17.773438 5.125 -17.609375 C 4.1875 -17.359375 3.628906 -16.734375 3.453125 -15.734375 C 3.285156 -14.742188 3.484375 -13.160156 4.046875 -10.984375 C 4.460938 -9.398438 4.890625 -8.21875 5.328125 -7.4375 C 5.773438 -6.65625 6.234375 -6.148438 6.703125 -5.921875 C 7.179688 -5.703125 7.675781 -5.660156 8.1875 -5.796875 C 8.75 -5.941406 9.175781 -6.15625 9.46875 -6.4375 C 9.757812 -6.71875 9.921875 -7.125 9.953125 -7.65625 C 10.003906 -8.4375 10.148438 -9.050781 10.390625 -9.5 C 10.628906 -9.945312 11.097656 -10.265625 11.796875 -10.453125 L 11.828125 -10.453125 C 12.566406 -10.648438 13.207031 -10.597656 13.75 -10.296875 C 14.300781 -9.992188 14.601562 -9.429688 14.65625 -8.609375 C 14.8125 -6.921875 14.40625 -5.535156 13.4375 -4.453125 C 12.476562 -3.367188 11.039062 -2.578125 9.125 -2.078125 Z M 9.125 -2.078125 "/></g></g></g><g fill="#ffffff" fill-opacity="1"><g transform="translate(236.600746, 288.324044)"><g><path d="M 12.15625 -15.5 C 12.601562 -14.375 13.0625 -13.253906 13.53125 -12.140625 C 14.007812 -11.023438 14.484375 -9.90625 14.953125 -8.78125 C 15.265625 -8.09375 15.3125 -7.484375 15.09375 -6.953125 C 14.875 -6.421875 14.414062 -6.007812 13.71875 -5.71875 L 13.21875 -5.515625 C 12.519531 -5.222656 11.90625 -5.1875 11.375 -5.40625 C 10.84375 -5.625 10.441406 -6.082031 10.171875 -6.78125 C 9.859375 -7.59375 9.535156 -8.398438 9.203125 -9.203125 C 8.867188 -10.003906 8.535156 -10.800781 8.203125 -11.59375 L 3.796875 -9.765625 C 4.128906 -8.972656 4.460938 -8.175781 4.796875 -7.375 C 5.128906 -6.570312 5.460938 -5.769531 5.796875 -4.96875 C 6.109375 -4.28125 6.15625 -3.671875 5.9375 -3.140625 C 5.71875 -2.609375 5.257812 -2.195312 4.5625 -1.90625 L 4.09375 -1.703125 C 3.394531 -1.410156 2.78125 -1.375 2.25 -1.59375 C 1.71875 -1.8125 1.316406 -2.273438 1.046875 -2.984375 C 0.578125 -4.109375 0.113281 -5.234375 -0.34375 -6.359375 C -0.800781 -7.484375 -1.265625 -8.601562 -1.734375 -9.71875 C -2.191406 -10.820312 -2.65625 -11.925781 -3.125 -13.03125 C -3.59375 -14.144531 -4.0625 -15.257812 -4.53125 -16.375 C -4.84375 -17.050781 -4.890625 -17.65625 -4.671875 -18.1875 C -4.453125 -18.71875 -3.992188 -19.128906 -3.296875 -19.421875 L -2.828125 -19.625 C -2.128906 -19.914062 -1.515625 -19.953125 -0.984375 -19.734375 C -0.453125 -19.515625 -0.0507812 -19.054688 0.21875 -18.359375 C 0.5625 -17.523438 0.910156 -16.679688 1.265625 -15.828125 C 1.617188 -14.984375 1.972656 -14.132812 2.328125 -13.28125 L 6.734375 -15.109375 C 6.378906 -15.960938 6.023438 -16.8125 5.671875 -17.65625 C 5.316406 -18.507812 4.957031 -19.347656 4.59375 -20.171875 C 4.28125 -20.859375 4.234375 -21.46875 4.453125 -22 C 4.671875 -22.53125 5.128906 -22.941406 5.828125 -23.234375 L 6.328125 -23.4375 C 7.023438 -23.726562 7.640625 -23.765625 8.171875 -23.546875 C 8.703125 -23.328125 9.101562 -22.867188 9.375 -22.171875 C 9.84375 -21.054688 10.304688 -19.941406 10.765625 -18.828125 C 11.234375 -17.710938 11.695312 -16.601562 12.15625 -15.5 Z M 12.15625 -15.5 "/></g></g></g><g fill="#ffffff" fill-opacity="1"><g transform="translate(256.80368, 279.573114)"><g><path d="M 4.40625 -6.859375 C 5.101562 -7.273438 5.800781 -7.6875 6.5 -8.09375 C 7.195312 -8.507812 7.875 -8.914062 8.53125 -9.3125 C 9.894531 -10.101562 10.890625 -9.96875 11.515625 -8.90625 C 12.148438 -7.820312 11.785156 -6.882812 10.421875 -6.09375 L 3.828125 -2.234375 C 3.171875 -1.859375 2.566406 -1.738281 2.015625 -1.875 C 1.460938 -2.019531 1.003906 -2.425781 0.640625 -3.09375 C 0.0234375 -4.144531 -0.582031 -5.195312 -1.1875 -6.25 C -1.789062 -7.300781 -2.398438 -8.347656 -3.015625 -9.390625 C -3.617188 -10.421875 -4.226562 -11.453125 -4.84375 -12.484375 C -5.457031 -13.523438 -6.070312 -14.566406 -6.6875 -15.609375 C -7.082031 -16.253906 -7.207031 -16.851562 -7.0625 -17.40625 C -6.914062 -17.96875 -6.515625 -18.4375 -5.859375 -18.8125 L 0.515625 -22.546875 C 1.867188 -23.335938 2.851562 -23.203125 3.46875 -22.140625 C 4.101562 -21.054688 3.742188 -20.117188 2.390625 -19.328125 C 1.734375 -18.960938 1.070312 -18.585938 0.40625 -18.203125 C -0.25 -17.816406 -0.90625 -17.4375 -1.5625 -17.0625 L 0.578125 -13.40625 C 1.085938 -13.726562 1.585938 -14.03125 2.078125 -14.3125 C 2.578125 -14.601562 3.054688 -14.898438 3.515625 -15.203125 C 4.878906 -15.992188 5.875 -15.851562 6.5 -14.78125 C 7.132812 -13.695312 6.769531 -12.757812 5.40625 -11.96875 C 4.925781 -11.695312 4.4375 -11.414062 3.9375 -11.125 C 3.445312 -10.84375 2.9375 -10.5625 2.40625 -10.28125 Z M 4.40625 -6.859375 "/></g></g></g><g fill="#ffffff" fill-opacity="1"><g transform="translate(272.494447, 270.212302)"><g><path d="M 1.0625 -22.4375 C 1.882812 -21.363281 1.671875 -20.351562 0.421875 -19.40625 C -0.171875 -18.976562 -0.800781 -18.507812 -1.46875 -18 C -2.132812 -17.5 -2.796875 -17.015625 -3.453125 -16.546875 L -0.875 -13.15625 C -0.375 -13.5625 0.125 -13.953125 0.625 -14.328125 C 1.132812 -14.710938 1.617188 -15.097656 2.078125 -15.484375 C 3.328125 -16.441406 4.328125 -16.425781 5.078125 -15.4375 C 5.847656 -14.425781 5.609375 -13.441406 4.359375 -12.484375 C 3.859375 -12.140625 3.351562 -11.773438 2.84375 -11.390625 C 2.34375 -11.015625 1.832031 -10.644531 1.3125 -10.28125 C 1.820312 -9.613281 2.328125 -8.945312 2.828125 -8.28125 C 3.335938 -7.625 3.847656 -6.957031 4.359375 -6.28125 C 4.835938 -5.6875 5.035156 -5.101562 4.953125 -4.53125 C 4.878906 -3.957031 4.539062 -3.441406 3.9375 -2.984375 L 3.53125 -2.6875 C 2.925781 -2.226562 2.335938 -2.035156 1.765625 -2.109375 C 1.203125 -2.191406 0.695312 -2.539062 0.25 -3.15625 C -0.488281 -4.125 -1.21875 -5.09375 -1.9375 -6.0625 C -2.664062 -7.03125 -3.394531 -7.992188 -4.125 -8.953125 C -4.851562 -9.910156 -5.585938 -10.863281 -6.328125 -11.8125 C -7.066406 -12.769531 -7.800781 -13.734375 -8.53125 -14.703125 C -9 -15.285156 -9.191406 -15.859375 -9.109375 -16.421875 C -9.035156 -16.992188 -8.695312 -17.507812 -8.09375 -17.96875 L -2.015625 -22.59375 C -0.765625 -23.539062 0.257812 -23.488281 1.0625 -22.4375 Z M 1.0625 -22.4375 "/></g></g></g></svg>